<svg version="1.1" viewBox="0.0 0.0 960.0 540.0" fill="none" stroke="none" stroke-linecap="square" stroke-miterlimit="10" xmlns:xlink="http://www.w3.org/1999/xlink" xmlns="http://www.w3.org/2000/svg"><clipPath id="g645ff45d54_0_1.0"><path d="m0 0l960.0 0l0 540.0l-960.0 0l0 -540.0z" clip-rule="nonzero"/></clipPath><g clip-path="url(#g645ff45d54_0_1.0)"><path fill="#000000" d="m0 0l960.0 0l0 540.0l-960.0 0z" fill-rule="evenodd"/><path fill="#000000" fill-opacity="0.0" d="m125.70226 132.2694l27.244102 -73.25984l73.92125 25.322834z" fill-rule="evenodd"/><path stroke="#ff00ff" stroke-width="4.0" stroke-linejoin="round" stroke-linecap="butt" d="m125.70226 132.2694l27.244102 -73.25984l73.92125 25.322834z" fill-rule="evenodd"/><path fill="#000000" fill-opacity="0.0" d="m43.034122 286.13647l51.43307 -29.88977" fill-rule="evenodd"/><path stroke="#ffff00" stroke-width="4.0" stroke-linejoin="round" stroke-linecap="butt" d="m43.034122 286.13647l51.43307 -29.88977" fill-rule="evenodd"/><path fill="#000000" fill-opacity="0.0" d="m96.79873 288.3336l-56.094486 97.41733" fill-rule="evenodd"/><path stroke="#ff8735" stroke-width="4.0" stroke-linejoin="round" stroke-linecap="butt" d="m96.79873 288.3336l-56.094486 97.41733" fill-rule="evenodd"/><path fill="#000000" fill-opacity="0.0" d="m48.838017 323.16382l-29.133858 50.456696" fill-rule="evenodd"/><path stroke="#ff8735" stroke-width="4.0" stroke-linejoin="round" stroke-linecap="butt" d="m48.838017 323.16382l-29.133858 50.456696" fill-rule="evenodd"/><path fill="#000000" fill-opacity="0.0" d="m80.06379 301.2393l-46.425194 80.409454" fill-rule="evenodd"/><path stroke="#ff8735" stroke-width="4.0" stroke-linejoin="round" stroke-linecap="butt" d="m80.06379 301.2393l-46.425194 80.409454" fill-rule="evenodd"/><path fill="#000000" fill-opacity="0.0" d="m32.36829 335.61017l-19.653543 33.95276" fill-rule="evenodd"/><path stroke="#ff8735" stroke-width="4.0" stroke-linejoin="round" stroke-linecap="butt" d="m32.36829 335.61017l-19.653543 33.95276" fill-rule="evenodd"/><path fill="#000000" fill-opacity="0.0" d="m137.49213 509.73883l52.92914 -91.55905l52.929123 91.55905z" fill-rule="evenodd"/><path stroke="#0000ff" stroke-width="4.0" stroke-linejoin="round" stroke-linecap="butt" d="m137.49213 509.73883l52.92914 -91.55905l52.929123 91.55905z" fill-rule="evenodd"/><path fill="#000000" fill-opacity="0.0" d="m15.959315 347.57333l-10.204725 18.015747" fill-rule="evenodd"/><path stroke="#ff8735" stroke-width="4.0" stroke-linejoin="round" stroke-linecap="butt" d="m15.959315 347.57333l-10.204725 18.015747" fill-rule="evenodd"/><path fill="#000000" fill-opacity="0.0" d="m64.858925 311.49484l-38.17323 66.14172" fill-rule="evenodd"/><path stroke="#ff8735" stroke-width="4.0" stroke-linejoin="round" stroke-linecap="butt" d="m64.858925 311.49484l-38.17323 66.14172" fill-rule="evenodd"/><path fill="#000000" fill-opacity="0.0" d="m2.3457255 355.07272l-3.6850395 6.3936768" fill-rule="evenodd"/><path stroke="#ff8735" stroke-width="4.0" stroke-linejoin="round" stroke-linecap="butt" d="m2.3457255 355.07272l-3.6850395 6.3936768" fill-rule="evenodd"/><path fill="#000000" fill-opacity="0.0" d="m90.72433 347.3469l-29.133862 50.456696" fill-rule="evenodd"/><path stroke="#ff8735" stroke-width="4.0" stroke-linejoin="round" stroke-linecap="butt" d="m90.72433 347.3469l-29.133862 50.456696" fill-rule="evenodd"/><path fill="#000000" fill-opacity="0.0" d="m94.09863 309.34232l-46.4252 80.409454" fill-rule="evenodd"/><path stroke="#ff8735" stroke-width="4.0" stroke-linejoin="round" stroke-linecap="butt" d="m94.09863 309.34232l-46.4252 80.409454" fill-rule="evenodd"/><path fill="#000000" fill-opacity="0.0" d="m88.20761 367.849l-19.65355 33.95276" fill-rule="evenodd"/><path stroke="#ff8735" stroke-width="4.0" stroke-linejoin="round" stroke-linecap="butt" d="m88.20761 367.849l-19.65355 33.95276" fill-rule="evenodd"/><path fill="#000000" fill-opacity="0.0" d="m85.88802 387.9467l-10.20472 18.015747" fill-rule="evenodd"/><path stroke="#ff8735" stroke-width="4.0" stroke-linejoin="round" stroke-linecap="butt" d="m85.88802 387.9467l-10.20472 18.015747" fill-rule="evenodd"/><path fill="#000000" fill-opacity="0.0" d="m92.819496 327.63788l-38.173225 66.141754" fill-rule="evenodd"/><path stroke="#ff8735" stroke-width="4.0" stroke-linejoin="round" stroke-linecap="butt" d="m92.819496 327.63788l-38.173225 66.141754" fill-rule="evenodd"/><path fill="#000000" fill-opacity="0.0" d="m86.33655 403.56485l-3.6850357 6.3936768" fill-rule="evenodd"/><path stroke="#ff8735" stroke-width="4.0" stroke-linejoin="round" stroke-linecap="butt" d="m86.33655 403.56485l-3.6850357 6.3936768" fill-rule="evenodd"/><path fill="#000000" fill-opacity="0.0" d="m156.73622 498.8176l33.685043 -58.26773l33.685028 58.26773z" fill-rule="evenodd"/><path stroke="#0000ff" stroke-width="4.0" stroke-linejoin="round" stroke-linecap="butt" d="m156.73622 498.8176l33.685043 -58.26773l33.685028 58.26773z" fill-rule="evenodd"/><path fill="#000000" fill-opacity="0.0" d="m-17.51181 87.561676l101.10236 71.65355" fill-rule="evenodd"/><path stroke="#35b729" stroke-width="4.0" stroke-linejoin="round" stroke-linecap="butt" stroke-dasharray="16.0,12.0" d="m-17.51181 87.561676l101.10236 71.65355" fill-rule="evenodd"/><path fill="#000000" fill-opacity="0.0" d="m246.9038 37.498596l52.283463 99.52756" fill-rule="evenodd"/><path stroke="#ff8735" stroke-width="4.0" stroke-linejoin="round" stroke-linecap="butt" d="m246.9038 37.498596l52.283463 99.52756" fill-rule="evenodd"/><path fill="#000000" fill-opacity="0.0" d="m250.67789 96.652054l27.055115 51.590546" fill-rule="evenodd"/><path stroke="#ff8735" stroke-width="4.0" stroke-linejoin="round" stroke-linecap="butt" d="m250.67789 96.652054l27.055115 51.590546" fill-rule="evenodd"/><path fill="#000000" fill-opacity="0.0" d="m248.8564 58.541485l43.11812 82.23622" fill-rule="evenodd"/><path stroke="#ff8735" stroke-width="4.0" stroke-linejoin="round" stroke-linecap="butt" d="m248.8564 58.541485l43.11812 82.23622" fill-rule="evenodd"/><path fill="#000000" fill-opacity="0.0" d="m252.38423 117.22514l18.173233 34.771652" fill-rule="evenodd"/><path stroke="#ff8735" stroke-width="4.0" stroke-linejoin="round" stroke-linecap="butt" d="m252.38423 117.22514l18.173233 34.771652" fill-rule="evenodd"/><path fill="#000000" fill-opacity="0.0" d="m253.71483 137.48845l9.763779 18.236221" fill-rule="evenodd"/><path stroke="#ff8735" stroke-width="4.0" stroke-linejoin="round" stroke-linecap="butt" d="m253.71483 137.48845l9.763779 18.236221" fill-rule="evenodd"/><path fill="#000000" fill-opacity="0.0" d="m249.38829 76.87401l35.464554 67.62204" fill-rule="evenodd"/><path stroke="#ff8735" stroke-width="4.0" stroke-linejoin="round" stroke-linecap="butt" d="m249.38829 76.87401l35.464554 67.62204" fill-rule="evenodd"/><path fill="#000000" fill-opacity="0.0" d="m252.76918 153.0022l3.4330597 6.519684" fill-rule="evenodd"/><path stroke="#ff8735" stroke-width="4.0" stroke-linejoin="round" stroke-linecap="butt" d="m252.76918 153.0022l3.4330597 6.519684" fill-rule="evenodd"/><path fill="#000000" fill-opacity="0.0" d="m293.51566 74.197426l27.055115 51.590553" fill-rule="evenodd"/><path stroke="#ff8735" stroke-width="4.0" stroke-linejoin="round" stroke-linecap="butt" d="m293.51566 74.197426l27.055115 51.590553" fill-rule="evenodd"/><path fill="#000000" fill-opacity="0.0" d="m263.21002 51.017612l43.118134 82.23622" fill-rule="evenodd"/><path stroke="#ff8735" stroke-width="4.0" stroke-linejoin="round" stroke-linecap="butt" d="m263.21002 51.017612l43.118134 82.23622" fill-rule="evenodd"/><path fill="#000000" fill-opacity="0.0" d="m309.49194 87.29051l18.173218 34.771652" fill-rule="evenodd"/><path stroke="#ff8735" stroke-width="4.0" stroke-linejoin="round" stroke-linecap="butt" d="m309.49194 87.29051l18.173218 34.771652" fill-rule="evenodd"/><path fill="#000000" fill-opacity="0.0" d="m325.23196 100.0007l9.763794 18.236221" fill-rule="evenodd"/><path stroke="#ff8735" stroke-width="4.0" stroke-linejoin="round" stroke-linecap="butt" d="m325.23196 100.0007l9.763794 18.236221" fill-rule="evenodd"/><path fill="#000000" fill-opacity="0.0" d="m277.98398 61.884758l35.46457 67.62205" fill-rule="evenodd"/><path stroke="#ff8735" stroke-width="4.0" stroke-linejoin="round" stroke-linecap="butt" d="m277.98398 61.884758l35.46457 67.62205" fill-rule="evenodd"/><path fill="#000000" fill-opacity="0.0" d="m338.66785 107.97595l3.433075 6.5196915" fill-rule="evenodd"/><path stroke="#ff8735" stroke-width="4.0" stroke-linejoin="round" stroke-linecap="butt" d="m338.66785 107.97595l3.433075 6.5196915" fill-rule="evenodd"/><path fill="#000000" fill-opacity="0.0" d="m9.262239 27.060884l93.25984 -49.889763l-3.3070831 105.70079z" fill-rule="evenodd"/><path stroke="#0000ff" stroke-width="4.0" stroke-linejoin="round" stroke-linecap="butt" d="m9.262239 27.060884l93.25984 -49.889763l-3.3070831 105.70079z" fill-rule="evenodd"/><path fill="#000000" fill-opacity="0.0" d="m31.39561 27.931751l59.33858 -31.748032l-2.0787354 67.27559z" fill-rule="evenodd"/><path stroke="#0000ff" stroke-width="4.0" stroke-linejoin="round" stroke-linecap="butt" d="m31.39561 27.931751l59.33858 -31.748032l-2.0787354 67.27559z" fill-rule="evenodd"/><path fill="#44d9e6" d="m-41.459236 176.27098l38.598343 -28.030823l38.598343 28.030823l-14.743254 45.354813l-47.710175 0z" fill-rule="evenodd"/><path fill="#000000" d="m-29.433893 165.66759l0 0c0 -3.731186 3.024723 -6.755905 6.755905 -6.755905l0 0c1.7917786 0 3.51017 0.71177673 4.7771473 1.9787598c1.2669773 1.266983 1.9787588 2.9853668 1.9787588 4.7771454l0 0c0 3.731186 -3.024722 6.755905 -6.755906 6.755905l0 0c-3.731182 0 -6.755905 -3.0247192 -6.755905 -6.755905z" fill-rule="evenodd"/><path fill="#000000" d="m-13.433893 181.66759l0 0c0 -3.731186 3.024722 -6.755905 6.7559056 -6.755905l0 0c1.7917776 0 3.5101688 0.71177673 4.777147 1.9787598c1.266978 1.266983 1.9787588 2.9853668 1.9787588 4.7771454l0 0c0 3.731186 -3.0247219 6.755905 -6.7559056 6.755905l0 0c-3.7311835 0 -6.7559056 -3.0247192 -6.7559056 -6.755905z" fill-rule="evenodd"/><path fill="#000000" d="m2.566107 197.66759l0 0c0 -3.731186 3.0247219 -6.755905 6.755906 -6.755905l0 0c1.7917776 0 3.510168 0.71177673 4.7771463 1.9787598c1.2669783 1.266983 1.9787598 2.9853668 1.9787598 4.7771454l0 0c0 3.731186 -3.024723 6.755905 -6.755906 6.755905l0 0c-3.731184 0 -6.755906 -3.0247192 -6.755906 -6.755905z" fill-rule="evenodd"/><path fill="#000000" d="m18.566107 213.66759l0 0c0 -3.731186 3.024723 -6.755905 6.755905 -6.755905l0 0c1.7917786 0 3.51017 0.71177673 4.7771473 1.9787598c1.2669773 1.266983 1.9787598 2.9853668 1.9787598 4.7771454l0 0c0 3.731186 -3.024723 6.755905 -6.755907 6.755905l0 0c-3.731182 0 -6.755905 -3.0247192 -6.755905 -6.755905z" fill-rule="evenodd"/><path fill="#000000" d="m-37.635994 190.76994l0 0c0 -3.7311707 3.024723 -6.755905 6.755907 -6.755905l0 0c1.7917767 0 3.510168 0.711792 4.7771473 1.9787598c1.2669773 1.266983 1.9787579 2.9853668 1.9787579 4.7771454l0 0c0 3.731186 -3.0247211 6.755905 -6.755905 6.755905l0 0c-3.731184 0 -6.755907 -3.0247192 -6.755907 -6.755905z" fill-rule="evenodd"/><path fill="#000000" d="m-21.635992 206.76994l0 0c0 -3.7311707 3.0247211 -6.755905 6.755905 -6.755905l0 0c1.7917776 0 3.510168 0.711792 4.7771463 1.9787598c1.2669783 1.266983 1.9787588 2.9853668 1.9787588 4.7771454l0 0c0 3.731186 -3.024722 6.755905 -6.755905 6.755905l0 0c-3.731184 0 -6.755905 -3.0247192 -6.755905 -6.755905z" fill-rule="evenodd"/><path fill="#000000" d="m-5.6359925 222.76994l0 0c0 -3.7311707 3.0247219 -6.755905 6.755905 -6.755905l0 0c1.7917776 0 3.5101683 0.711792 4.7771463 1.9787598c1.2669783 1.266983 1.9787588 2.9853668 1.9787588 4.7771454l0 0c0 3.731186 -3.0247216 6.755905 -6.755905 6.755905l0 0c-3.7311835 0 -6.755905 -3.0247192 -6.755905 -6.755905z" fill-rule="evenodd"/><path fill="#000000" d="m-3.2081323 159.60577l0 0c0 -3.731186 3.0247219 -6.755905 6.755905 -6.755905l0 0c1.7917778 0 3.5101688 0.71177673 4.7771463 1.9787598c1.2669783 1.2669678 1.9787588 2.9853668 1.9787588 4.7771454l0 0c0 3.731186 -3.0247216 6.755905 -6.755905 6.755905l0 0c-3.7311835 0 -6.755905 -3.0247192 -6.755905 -6.755905z" fill-rule="evenodd"/><path fill="#000000" d="m12.791867 175.60577l0 0c0 -3.731186 3.024722 -6.755905 6.755906 -6.755905l0 0c1.7917767 0 3.510168 0.71177673 4.7771473 1.9787598c1.2669773 1.2669678 1.9787579 2.9853668 1.9787579 4.7771454l0 0c0 3.731186 -3.0247211 6.755905 -6.755905 6.755905l0 0c-3.731184 0 -6.755906 -3.0247192 -6.755906 -6.755905z" fill-rule="evenodd"/><path fill="#000000" d="m28.954166 192.05565l0 0c0 -3.731186 3.024723 -6.755905 6.755905 -6.755905l0 0c1.7917786 0 3.51017 0.71177673 4.777149 1.9787598c1.2669754 1.2669678 1.978756 2.9853668 1.978756 4.7771454l0 0c0 3.731186 -3.0247192 6.755905 -6.755905 6.755905l0 0c-3.731182 0 -6.755905 -3.0247192 -6.755905 -6.755905z" fill-rule="evenodd"/><path fill="#ffff00" d="m2.3464568 284.3491l0 0c0 -2.2004395 1.7838104 -3.984253 3.9842517 -3.984253l0 0c1.0566893 0 2.0700998 0.4197693 2.8172922 1.1669617c0.7471914 0.7471924 1.1669598 1.7605896 1.1669598 2.8172913l0 0c0 2.2004395 -1.7838106 3.984253 -3.984252 3.984253l0 0c-2.2004414 0 -3.9842517 -1.7838135 -3.9842517 -3.984253z" fill-rule="evenodd"/><path fill="#000000" fill-opacity="0.0" d="m335.81485 43.452866l9.795288 -77.52756l77.76376 7.7637806z" fill-rule="evenodd"/><path stroke="#ff00ff" stroke-width="4.0" stroke-linejoin="round" stroke-linecap="butt" d="m335.81485 43.452866l9.795288 -77.52756l77.76376 7.7637806z" fill-rule="evenodd"/><path fill="#000000" fill-opacity="0.0" d="m547.6529 483.78714l67.590576 -89.85828" fill-rule="evenodd"/><path stroke="#ff8735" stroke-width="4.0" stroke-linejoin="round" stroke-linecap="butt" d="m547.6529 483.78714l67.590576 -89.85828" fill-rule="evenodd"/><path fill="#000000" fill-opacity="0.0" d="m599.50134 455.06226l35.02362 -46.519684" fill-rule="evenodd"/><path stroke="#ff8735" stroke-width="4.0" stroke-linejoin="round" stroke-linecap="butt" d="m599.50134 455.06226l35.02362 -46.519684" fill-rule="evenodd"/><path fill="#000000" fill-opacity="0.0" d="m565.8361 473.01736l55.873962 -74.14172" fill-rule="evenodd"/><path stroke="#ff8735" stroke-width="4.0" stroke-linejoin="round" stroke-linecap="butt" d="m565.8361 473.01736l55.873962 -74.14172" fill-rule="evenodd"/><path fill="#000000" fill-opacity="0.0" d="m617.3653 444.71613l23.684998 -31.307098" fill-rule="evenodd"/><path stroke="#ff8735" stroke-width="4.0" stroke-linejoin="round" stroke-linecap="butt" d="m617.3653 444.71613l23.684998 -31.307098" fill-rule="evenodd"/><path fill="#000000" fill-opacity="0.0" d="m635.11005 434.84213l12.283447 -16.661407" fill-rule="evenodd"/><path stroke="#ff8735" stroke-width="4.0" stroke-linejoin="round" stroke-linecap="butt" d="m635.11005 434.84213l12.283447 -16.661407" fill-rule="evenodd"/><path fill="#000000" fill-opacity="0.0" d="m582.1776 464.69153l45.95276 -61.007874" fill-rule="evenodd"/><path stroke="#ff8735" stroke-width="4.0" stroke-linejoin="round" stroke-linecap="butt" d="m582.1776 464.69153l45.95276 -61.007874" fill-rule="evenodd"/><path fill="#000000" fill-opacity="0.0" d="m649.5362 429.05795l4.409424 -5.8897705" fill-rule="evenodd"/><path stroke="#ff8735" stroke-width="4.0" stroke-linejoin="round" stroke-linecap="butt" d="m649.5362 429.05795l4.409424 -5.8897705" fill-rule="evenodd"/><path fill="#000000" fill-opacity="0.0" d="m560.8749 425.9542l35.02362 -46.519684" fill-rule="evenodd"/><path stroke="#ff8735" stroke-width="4.0" stroke-linejoin="round" stroke-linecap="butt" d="m560.8749 425.9542l35.02362 -46.519684" fill-rule="evenodd"/><path fill="#000000" fill-opacity="0.0" d="m552.89355 463.26413l55.874023 -74.14172" fill-rule="evenodd"/><path stroke="#ff8735" stroke-width="4.0" stroke-linejoin="round" stroke-linecap="butt" d="m552.89355 463.26413l55.874023 -74.14172" fill-rule="evenodd"/><path fill="#000000" fill-opacity="0.0" d="m565.8717 405.91168l23.685059 -31.307098" fill-rule="evenodd"/><path stroke="#ff8735" stroke-width="4.0" stroke-linejoin="round" stroke-linecap="butt" d="m565.8717 405.91168l23.685059 -31.307098" fill-rule="evenodd"/><path fill="#000000" fill-opacity="0.0" d="m570.6236 386.24655l12.283447 -16.661407" fill-rule="evenodd"/><path stroke="#ff8735" stroke-width="4.0" stroke-linejoin="round" stroke-linecap="butt" d="m570.6236 386.24655l12.283447 -16.661407" fill-rule="evenodd"/><path fill="#000000" fill-opacity="0.0" d="m556.39307 445.26086l45.95276 -61.007874" fill-rule="evenodd"/><path stroke="#ff8735" stroke-width="4.0" stroke-linejoin="round" stroke-linecap="butt" d="m556.39307 445.26086l45.95276 -61.007874" fill-rule="evenodd"/><path fill="#000000" fill-opacity="0.0" d="m572.08203 370.6902l4.409424 -5.8897705" fill-rule="evenodd"/><path stroke="#ff8735" stroke-width="4.0" stroke-linejoin="round" stroke-linecap="butt" d="m572.08203 370.6902l4.409424 -5.8897705" fill-rule="evenodd"/><path fill="#000000" fill-opacity="0.0" d="m659.77826 233.35983l-51.716553 -99.842514" fill-rule="evenodd"/><path stroke="#ff8735" stroke-width="4.0" stroke-linejoin="round" stroke-linecap="butt" d="m659.77826 233.35983l-51.716553 -99.842514" fill-rule="evenodd"/><path fill="#000000" fill-opacity="0.0" d="m656.3379 174.18604l-26.771667 -51.74803" fill-rule="evenodd"/><path stroke="#ff8735" stroke-width="4.0" stroke-linejoin="round" stroke-linecap="butt" d="m656.3379 174.18604l-26.771667 -51.74803" fill-rule="evenodd"/><path fill="#000000" fill-opacity="0.0" d="m657.94434 212.30627l-42.64563 -82.48819" fill-rule="evenodd"/><path stroke="#ff8735" stroke-width="4.0" stroke-linejoin="round" stroke-linecap="butt" d="m657.94434 212.30627l-42.64563 -82.48819" fill-rule="evenodd"/><path fill="#000000" fill-opacity="0.0" d="m654.7476 153.60365l-17.984253 -34.86615" fill-rule="evenodd"/><path stroke="#ff8735" stroke-width="4.0" stroke-linejoin="round" stroke-linecap="butt" d="m654.7476 153.60365l-17.984253 -34.86615" fill-rule="evenodd"/><path fill="#000000" fill-opacity="0.0" d="m653.5313 133.33316l-9.669312 -18.299217" fill-rule="evenodd"/><path stroke="#ff8735" stroke-width="4.0" stroke-linejoin="round" stroke-linecap="butt" d="m653.5313 133.33316l-9.669312 -18.299217" fill-rule="evenodd"/><path fill="#000000" fill-opacity="0.0" d="m657.51587 193.97104l-35.118103 -67.842514" fill-rule="evenodd"/><path stroke="#ff8735" stroke-width="4.0" stroke-linejoin="round" stroke-linecap="butt" d="m657.51587 193.97104l-35.118103 -67.842514" fill-rule="evenodd"/><path fill="#000000" fill-opacity="0.0" d="m654.56445 117.825l-3.4015503 -6.519684" fill-rule="evenodd"/><path stroke="#ff8735" stroke-width="4.0" stroke-linejoin="round" stroke-linecap="butt" d="m654.56445 117.825l-3.4015503 -6.519684" fill-rule="evenodd"/><path fill="#000000" fill-opacity="0.0" d="m613.37415 196.39868l-26.771667 -51.74803" fill-rule="evenodd"/><path stroke="#ff8735" stroke-width="4.0" stroke-linejoin="round" stroke-linecap="butt" d="m613.37415 196.39868l-26.771667 -51.74803" fill-rule="evenodd"/><path fill="#000000" fill-opacity="0.0" d="m643.5485 219.74905l-42.64569 -82.48819" fill-rule="evenodd"/><path stroke="#ff8735" stroke-width="4.0" stroke-linejoin="round" stroke-linecap="butt" d="m643.5485 219.74905l-42.64569 -82.48819" fill-rule="evenodd"/><path fill="#000000" fill-opacity="0.0" d="m597.4719 183.21568l-17.984253 -34.86615" fill-rule="evenodd"/><path stroke="#ff8735" stroke-width="4.0" stroke-linejoin="round" stroke-linecap="butt" d="m597.4719 183.21568l-17.984253 -34.86615" fill-rule="evenodd"/><path fill="#000000" fill-opacity="0.0" d="m581.80383 170.41692l-9.6692505 -18.29921" fill-rule="evenodd"/><path stroke="#ff8735" stroke-width="4.0" stroke-linejoin="round" stroke-linecap="butt" d="m581.80383 170.41692l-9.6692505 -18.29921" fill-rule="evenodd"/><path fill="#000000" fill-opacity="0.0" d="m628.8361 208.79875l-35.118103 -67.842514" fill-rule="evenodd"/><path stroke="#ff8735" stroke-width="4.0" stroke-linejoin="round" stroke-linecap="butt" d="m628.8361 208.79875l-35.118103 -67.842514" fill-rule="evenodd"/><path fill="#000000" fill-opacity="0.0" d="m568.41315 162.366l-3.4015503 -6.519684" fill-rule="evenodd"/><path stroke="#ff8735" stroke-width="4.0" stroke-linejoin="round" stroke-linecap="butt" d="m568.41315 162.366l-3.4015503 -6.519684" fill-rule="evenodd"/><path fill="#000000" fill-opacity="0.0" d="m931.5878 456.88733l-25.732239 109.44885" fill-rule="evenodd"/><path stroke="#ff8735" stroke-width="4.0" stroke-linejoin="round" stroke-linecap="butt" d="m931.5878 456.88733l-25.732239 109.44885" fill-rule="evenodd"/><path fill="#000000" fill-opacity="0.0" d="m895.678 504.0451l-13.35437 56.69287" fill-rule="evenodd"/><path stroke="#ff8735" stroke-width="4.0" stroke-linejoin="round" stroke-linecap="butt" d="m895.678 504.0451l-13.35437 56.69287" fill-rule="evenodd"/><path fill="#000000" fill-opacity="0.0" d="m919.2743 474.06268l-21.322815 90.36218" fill-rule="evenodd"/><path stroke="#ff8735" stroke-width="4.0" stroke-linejoin="round" stroke-linecap="butt" d="m919.2743 474.06268l-21.322815 90.36218" fill-rule="evenodd"/><path fill="#000000" fill-opacity="0.0" d="m883.4862 520.70416l-9.070862 38.173218" fill-rule="evenodd"/><path stroke="#ff8735" stroke-width="4.0" stroke-linejoin="round" stroke-linecap="butt" d="m883.4862 520.70416l-9.070862 38.173218" fill-rule="evenodd"/><path fill="#000000" fill-opacity="0.0" d="m871.2136 536.88306l-4.5668945 20.188965" fill-rule="evenodd"/><path stroke="#ff8735" stroke-width="4.0" stroke-linejoin="round" stroke-linecap="butt" d="m871.2136 536.88306l-4.5668945 20.188965" fill-rule="evenodd"/><path fill="#000000" fill-opacity="0.0" d="m907.6635 488.25964l-17.51178 74.33075" fill-rule="evenodd"/><path stroke="#ff8735" stroke-width="4.0" stroke-linejoin="round" stroke-linecap="butt" d="m907.6635 488.25964l-17.51178 74.33075" fill-rule="evenodd"/><path fill="#000000" fill-opacity="0.0" d="m860.33374 547.98254l-1.6693115 7.1810913" fill-rule="evenodd"/><path stroke="#ff8735" stroke-width="4.0" stroke-linejoin="round" stroke-linecap="butt" d="m860.33374 547.98254l-1.6693115 7.1810913" fill-rule="evenodd"/><path fill="#000000" fill-opacity="0.0" d="m942.75134 515.15265l-13.354309 56.69287" fill-rule="evenodd"/><path stroke="#ff8735" stroke-width="4.0" stroke-linejoin="round" stroke-linecap="butt" d="m942.75134 515.15265l-13.354309 56.69287" fill-rule="evenodd"/><path fill="#000000" fill-opacity="0.0" d="m935.0472 477.7845l-21.322815 90.36218" fill-rule="evenodd"/><path stroke="#ff8735" stroke-width="4.0" stroke-linejoin="round" stroke-linecap="butt" d="m935.0472 477.7845l-21.322815 90.36218" fill-rule="evenodd"/><path fill="#000000" fill-opacity="0.0" d="m946.24054 535.51184l-9.070862 38.173218" fill-rule="evenodd"/><path stroke="#ff8735" stroke-width="4.0" stroke-linejoin="round" stroke-linecap="butt" d="m946.24054 535.51184l-9.070862 38.173218" fill-rule="evenodd"/><path fill="#000000" fill-opacity="0.0" d="m949.8022 555.42694l-4.5669556 20.188965" fill-rule="evenodd"/><path stroke="#ff8735" stroke-width="4.0" stroke-linejoin="round" stroke-linecap="butt" d="m949.8022 555.42694l-4.5669556 20.188965" fill-rule="evenodd"/><path fill="#000000" fill-opacity="0.0" d="m939.0867 495.67432l-17.51178 74.33069" fill-rule="evenodd"/><path stroke="#ff8735" stroke-width="4.0" stroke-linejoin="round" stroke-linecap="butt" d="m939.0867 495.67432l-17.51178 74.33069" fill-rule="evenodd"/><path fill="#000000" fill-opacity="0.0" d="m954.7258 570.2555l-1.6693115 7.1810913" fill-rule="evenodd"/><path stroke="#ff8735" stroke-width="4.0" stroke-linejoin="round" stroke-linecap="butt" d="m954.7258 570.2555l-1.6693115 7.1810913" fill-rule="evenodd"/><path fill="#000000" fill-opacity="0.0" d="m822.87396 276.7679l-25.7323 109.44882" fill-rule="evenodd"/><path stroke="#ff8735" stroke-width="4.0" stroke-linejoin="round" stroke-linecap="butt" d="m822.87396 276.7679l-25.7323 109.44882" fill-rule="evenodd"/><path fill="#000000" fill-opacity="0.0" d="m786.96405 323.92566l-13.35437 56.692932" fill-rule="evenodd"/><path stroke="#ff8735" stroke-width="4.0" stroke-linejoin="round" stroke-linecap="butt" d="m786.96405 323.92566l-13.35437 56.692932" fill-rule="evenodd"/><path fill="#000000" fill-opacity="0.0" d="m810.56036 293.94324l-21.322815 90.36221" fill-rule="evenodd"/><path stroke="#ff8735" stroke-width="4.0" stroke-linejoin="round" stroke-linecap="butt" d="m810.56036 293.94324l-21.322815 90.36221" fill-rule="evenodd"/><path fill="#000000" fill-opacity="0.0" d="m774.7723 340.58475l-9.070862 38.17325" fill-rule="evenodd"/><path stroke="#ff8735" stroke-width="4.0" stroke-linejoin="round" stroke-linecap="butt" d="m774.7723 340.58475l-9.070862 38.17325" fill-rule="evenodd"/><path fill="#000000" fill-opacity="0.0" d="m762.4997 356.7636l-4.5668945 20.188995" fill-rule="evenodd"/><path stroke="#ff8735" stroke-width="4.0" stroke-linejoin="round" stroke-linecap="butt" d="m762.4997 356.7636l-4.5668945 20.188995" fill-rule="evenodd"/><path fill="#000000" fill-opacity="0.0" d="m798.94965 308.14023l-17.51184 74.33072" fill-rule="evenodd"/><path stroke="#ff8735" stroke-width="4.0" stroke-linejoin="round" stroke-linecap="butt" d="m798.94965 308.14023l-17.51184 74.33072" fill-rule="evenodd"/><path fill="#000000" fill-opacity="0.0" d="m751.6198 367.86313l-1.6692505 7.1810913" fill-rule="evenodd"/><path stroke="#ff8735" stroke-width="4.0" stroke-linejoin="round" stroke-linecap="butt" d="m751.6198 367.86313l-1.6692505 7.1810913" fill-rule="evenodd"/><path fill="#000000" fill-opacity="0.0" d="m834.0375 335.0332l-13.35437 56.692932" fill-rule="evenodd"/><path stroke="#ff8735" stroke-width="4.0" stroke-linejoin="round" stroke-linecap="butt" d="m834.0375 335.0332l-13.35437 56.692932" fill-rule="evenodd"/><path fill="#000000" fill-opacity="0.0" d="m826.33325 297.66504l-21.322815 90.36221" fill-rule="evenodd"/><path stroke="#ff8735" stroke-width="4.0" stroke-linejoin="round" stroke-linecap="butt" d="m826.33325 297.66504l-21.322815 90.36221" fill-rule="evenodd"/><path fill="#000000" fill-opacity="0.0" d="m837.5266 355.3924l-9.070862 38.17325" fill-rule="evenodd"/><path stroke="#ff8735" stroke-width="4.0" stroke-linejoin="round" stroke-linecap="butt" d="m837.5266 355.3924l-9.070862 38.17325" fill-rule="evenodd"/><path fill="#000000" fill-opacity="0.0" d="m841.08826 375.30753l-4.5669556 20.188995" fill-rule="evenodd"/><path stroke="#ff8735" stroke-width="4.0" stroke-linejoin="round" stroke-linecap="butt" d="m841.08826 375.30753l-4.5669556 20.188995" fill-rule="evenodd"/><path fill="#000000" fill-opacity="0.0" d="m830.37274 315.5549l-17.51178 74.33072" fill-rule="evenodd"/><path stroke="#ff8735" stroke-width="4.0" stroke-linejoin="round" stroke-linecap="butt" d="m830.37274 315.5549l-17.51178 74.33072" fill-rule="evenodd"/><path fill="#000000" fill-opacity="0.0" d="m846.0119 390.13605l-1.6693115 7.181122" fill-rule="evenodd"/><path stroke="#ff8735" stroke-width="4.0" stroke-linejoin="round" stroke-linecap="butt" d="m846.0119 390.13605l-1.6693115 7.181122" fill-rule="evenodd"/><path fill="#44d9e6" d="m291.73654 290.87857l-44.449387 -17.286316l2.6856995 -47.626938l46.109238 -12.148773l25.81137 40.11859z" fill-rule="evenodd"/><path fill="#000000" d="m251.55298 234.4668l0 0c0 -3.731186 3.0247345 -6.755905 6.7559204 -6.755905l0 0c1.7917786 0 3.5101624 0.71177673 4.77713 1.9787598c1.2669983 1.266983 1.9787598 2.9853668 1.9787598 4.7771454l0 0c0 3.731186 -3.0247192 6.755905 -6.75589 6.755905l0 0c-3.731186 0 -6.7559204 -3.0247192 -6.7559204 -6.755905z" fill-rule="evenodd"/><path fill="#000000" d="m267.55298 250.4668l0 0c0 -3.731186 3.0247192 -6.755905 6.7559204 -6.755905l0 0c1.7917786 0 3.5101624 0.71177673 4.77713 1.9787598c1.2669983 1.266983 1.9787598 2.9853668 1.9787598 4.7771454l0 0c0 3.731186 -3.0247192 6.7559204 -6.75589 6.7559204l0 0c-3.7312012 0 -6.7559204 -3.0247345 -6.7559204 -6.7559204z" fill-rule="evenodd"/><path fill="#000000" d="m283.55298 266.4668l0 0c0 -3.7311707 3.0247192 -6.75589 6.7559204 -6.75589l0 0c1.7917786 0 3.5101624 0.7117615 4.77713 1.9787598c1.2669983 1.2669678 1.9787598 2.9853516 1.9787598 4.77713l0 0c0 3.7312012 -3.0247192 6.7559204 -6.75589 6.7559204l0 0c-3.7312012 0 -6.7559204 -3.0247192 -6.7559204 -6.7559204z" fill-rule="evenodd"/><path fill="#000000" d="m299.55298 282.4668l0 0c0 -3.7311707 3.0247192 -6.75589 6.7559204 -6.75589l0 0c1.7917786 0 3.5101624 0.7117615 4.77713 1.9787598c1.2669983 1.2669678 1.9787598 2.9853516 1.9787598 4.77713l0 0c0 3.7312012 -3.0247192 6.7559204 -6.75589 6.7559204l0 0c-3.7312012 0 -6.7559204 -3.0247192 -6.7559204 -6.7559204z" fill-rule="evenodd"/><path fill="#000000" d="m243.35089 259.56915l0 0c0 -3.7311707 3.0247192 -6.75589 6.755905 -6.75589l0 0c1.7917633 0 3.5101624 0.71177673 4.7771454 1.9787598c1.2669678 1.2669678 1.9787598 2.9853516 1.9787598 4.77713l0 0c0 3.7312012 -3.0247345 6.7559204 -6.755905 6.7559204l0 0c-3.731186 0 -6.755905 -3.0247192 -6.755905 -6.7559204z" fill-rule="evenodd"/><path fill="#000000" d="m259.3509 275.56915l0 0c0 -3.7311707 3.0247192 -6.75589 6.75589 -6.75589l0 0c1.7917786 0 3.5101624 0.7117615 4.7771606 1.9787598c1.2669678 1.2669678 1.9787598 2.9853516 1.9787598 4.77713l0 0c0 3.7312012 -3.0247192 6.7559204 -6.7559204 6.7559204l0 0c-3.7311707 0 -6.75589 -3.0247192 -6.75589 -6.7559204z" fill-rule="evenodd"/><path fill="#000000" d="m275.3509 291.56915l0 0c0 -3.7311707 3.0247192 -6.75589 6.75589 -6.75589l0 0c1.7917786 0 3.5101624 0.7117615 4.7771606 1.9787598c1.2669678 1.2669678 1.9787598 2.9853516 1.9787598 4.77713l0 0c0 3.7312012 -3.0247192 6.7559204 -6.7559204 6.7559204l0 0c-3.7311707 0 -6.75589 -3.0247192 -6.75589 -6.7559204z" fill-rule="evenodd"/><path fill="#000000" d="m277.77875 228.40498l0 0c0 -3.731186 3.0247192 -6.755905 6.75589 -6.755905l0 0c1.7917786 0 3.5101929 0.71177673 4.7771606 1.9787598c1.2669678 1.266983 1.9787598 2.9853668 1.9787598 4.7771454l0 0c0 3.731186 -3.0247192 6.755905 -6.7559204 6.755905l0 0c-3.7311707 0 -6.75589 -3.0247192 -6.75589 -6.755905z" fill-rule="evenodd"/><path fill="#000000" d="m293.77875 244.40498l0 0c0 -3.731186 3.0247192 -6.755905 6.75589 -6.755905l0 0c1.7917786 0 3.5101929 0.71177673 4.7771606 1.9787598c1.2669678 1.266983 1.9787598 2.9853668 1.9787598 4.7771454l0 0c0 3.731186 -3.0247192 6.755905 -6.7559204 6.755905l0 0c-3.7311707 0 -6.75589 -3.0247192 -6.75589 -6.755905z" fill-rule="evenodd"/><path fill="#000000" d="m309.94104 260.85486l0 0c0 -3.7311707 3.0247192 -6.755905 6.7559204 -6.755905l0 0c1.7917786 0 3.5101624 0.71177673 4.77713 1.978775c1.2669983 1.2669678 1.9787598 2.9853516 1.9787598 4.77713l0 0c0 3.7311707 -3.0247192 6.7559204 -6.75589 6.7559204l0 0c-3.7312012 0 -6.7559204 -3.0247498 -6.7559204 -6.7559204z" fill-rule="evenodd"/><path fill="#44d9e6" d="m316.90115 504.52246l43.509644 -19.567322l32.08075 35.315308l-23.682617 41.393433l-46.717438 -9.732788z" fill-rule="evenodd"/><path fill="#000000" d="m330.84283 496.59424l0 0c0.75665283 -3.6529236 4.3313293 -6.0007935 7.984253 -5.24411l0 0c1.7541809 0.3633728 3.2921753 1.4086914 4.275635 2.9060364c0.9834595 1.497345 1.3318176 3.3240356 0.9684448 5.0782166l0 0c-0.75668335 3.6529236 -4.3313293 6.000763 -7.984253 5.24411l0 0c-3.652893 -0.75668335 -6.000763 -4.33136 -5.2440796 -7.984253z" fill-rule="evenodd"/><path fill="#000000" d="m343.24506 515.52l0 0c0.75668335 -3.6529236 4.3313293 -6.0007935 7.984253 -5.24411l0 0c1.7541809 0.3633728 3.2921753 1.4086914 4.275635 2.9060364c0.9834595 1.4973145 1.3318176 3.3240356 0.9684448 5.078186l0 0c-0.75665283 3.652954 -4.3313293 6.0007935 -7.984253 5.2441406l0 0c-3.652893 -0.75671387 -6.000763 -4.33136 -5.2440796 -7.984253z" fill-rule="evenodd"/><path fill="#000000" d="m355.64728 534.44574l0 0c0.75668335 -3.652893 4.33136 -6.0007324 7.984253 -5.2440796l0 0c1.7541809 0.36340332 3.2921753 1.4086914 4.275635 2.906067c0.9834595 1.4973145 1.3318176 3.3240356 0.9684448 5.078186l0 0c-0.75665283 3.652893 -4.3313293 6.0007935 -7.9842224 5.2440796l0 0c-3.6529236 -0.75665283 -6.0007935 -4.331299 -5.24411 -7.984253z" fill-rule="evenodd"/><path fill="#000000" d="m368.0495 553.3715l0 0c0.75668335 -3.652893 4.33136 -6.0007324 7.984253 -5.2440796l0 0c1.7541809 0.3633423 3.2921753 1.4086914 4.275635 2.906067c0.9834595 1.4973145 1.3318481 3.3239746 0.96847534 5.078186l0 0c-0.75668335 3.652893 -4.33136 6.0007935 -7.984253 5.2440796l0 0c-3.6529236 -0.75665283 -6.000763 -4.33136 -5.24411 -7.984253z" fill-rule="evenodd"/><path fill="#000000" d="m317.6956 519.4974l0 0c0.75668335 -3.652954 4.3313293 -6.0007935 7.984253 -5.2441406l0 0c1.7541809 0.36340332 3.2921753 1.4087524 4.275635 2.906067c0.9834595 1.4973145 1.3318176 3.3240356 0.9684448 5.078186l0 0c-0.75665283 3.652954 -4.3313293 6.0007935 -7.984253 5.2441406l0 0c-3.652893 -0.75671387 -6.000763 -4.33136 -5.2440796 -7.984253z" fill-rule="evenodd"/><path fill="#000000" d="m330.0978 538.4231l0 0c0.75668335 -3.652893 4.33136 -6.0007324 7.984253 -5.2440796l0 0c1.7541809 0.36340332 3.2921753 1.4086914 4.275635 2.906067c0.9834595 1.4973145 1.3318176 3.3240356 0.96847534 5.078186l0 0c-0.75668335 3.652893 -4.33136 6.0007935 -7.984253 5.2440796l0 0c-3.6529236 -0.75665283 -6.0007935 -4.331299 -5.24411 -7.984253z" fill-rule="evenodd"/><path fill="#000000" d="m342.50003 557.3489l0 0c0.75668335 -3.652893 4.33136 -6.0007324 7.984253 -5.2440796l0 0c1.7541809 0.3633423 3.2921753 1.4086914 4.275635 2.906067c0.9834595 1.4973145 1.3318481 3.3239746 0.96847534 5.078186l0 0c-0.75668335 3.652893 -4.33136 6.0007935 -7.984253 5.2440796l0 0c-3.6529236 -0.75665283 -6.000763 -4.33136 -5.24411 -7.984253z" fill-rule="evenodd"/><path fill="#000000" d="m357.7536 496.0061l0 0c0.75668335 -3.652893 4.33136 -6.000763 7.984253 -5.2440796l0 0c1.7541809 0.3633728 3.2921753 1.4086914 4.275635 2.9060364c0.9834595 1.497345 1.3318176 3.3240051 0.96847534 5.0782166l0 0c-0.75668335 3.652893 -4.33136 6.000763 -7.984253 5.2440796l0 0c-3.6529236 -0.75665283 -6.000763 -4.3313293 -5.24411 -7.984253z" fill-rule="evenodd"/><path fill="#000000" d="m370.15582 514.9319l0 0c0.75668335 -3.6529236 4.33136 -6.000763 7.984253 -5.24411l0 0c1.7542114 0.3633728 3.2922058 1.4087219 4.2756653 2.9060364c0.9834595 1.4973755 1.3318176 3.3240356 0.9684448 5.078247l0 0c-0.75668335 3.652893 -4.33136 6.0007324 -7.984253 5.2440796l0 0c-3.6529236 -0.75665283 -6.000763 -4.33136 -5.24411 -7.984253z" fill-rule="evenodd"/><path fill="#000000" d="m382.62524 534.3312l0 0c0.75668335 -3.652893 4.3313293 -6.0007935 7.984253 -5.2440796l0 0c1.7541809 0.3633423 3.2921753 1.4086914 4.275635 2.9060059c0.9834595 1.4973145 1.3318176 3.3240356 0.9684448 5.078247l0 0c-0.75665283 3.652893 -4.3313293 6.0007324 -7.984253 5.2440796l0 0c-3.652893 -0.75671387 -6.000763 -4.33136 -5.2440796 -7.984253z" fill-rule="evenodd"/><path fill="#44d9e6" d="m740.20746 534.36414l38.598328 -28.030792l38.598328 28.030792l-14.743225 45.35486l-47.710205 0z" fill-rule="evenodd"/><path fill="#000000" d="m752.2328 523.76074l0 0c0 -3.7311401 3.0247192 -6.7558594 6.7559204 -6.7558594l0 0c1.791748 0 3.5101318 0.71173096 4.7770996 1.9787598c1.2669678 1.2669678 1.9787598 2.9853516 1.9787598 4.7770996l0 0c0 3.7312012 -3.0247192 6.7559204 -6.7558594 6.7559204l0 0c-3.7312012 0 -6.7559204 -3.0247192 -6.7559204 -6.7559204z" fill-rule="evenodd"/><path fill="#000000" d="m768.2328 539.76074l0 0c0 -3.7311401 3.0247192 -6.7558594 6.7559204 -6.7558594l0 0c1.791748 0 3.5101318 0.71173096 4.7770996 1.9787598c1.2669678 1.2669678 1.9787598 2.9853516 1.9787598 4.7770996l0 0c0 3.7312012 -3.0247192 6.7559204 -6.7558594 6.7559204l0 0c-3.7312012 0 -6.7559204 -3.0247192 -6.7559204 -6.7559204z" fill-rule="evenodd"/><path fill="#000000" d="m784.2328 555.76074l0 0c0 -3.7311401 3.0247192 -6.7558594 6.7559204 -6.7558594l0 0c1.791748 0 3.5101318 0.71173096 4.7770996 1.9787598c1.2669678 1.2669678 1.9787598 2.9853516 1.9787598 4.7770996l0 0c0 3.7312012 -3.0247192 6.7559204 -6.7558594 6.7559204l0 0c-3.7312012 0 -6.7559204 -3.0247192 -6.7559204 -6.7559204z" fill-rule="evenodd"/><path fill="#000000" d="m800.2328 571.76074l0 0c0 -3.7311401 3.0247192 -6.7558594 6.7559204 -6.7558594l0 0c1.791748 0 3.5101318 0.71173096 4.7770996 1.9787598c1.2669678 1.2669678 1.9787598 2.9853516 1.9787598 4.7770996l0 0c0 3.7312012 -3.0247192 6.7559204 -6.7558594 6.7559204l0 0c-3.7312012 0 -6.7559204 -3.0247192 -6.7559204 -6.7559204z" fill-rule="evenodd"/><path fill="#000000" d="m744.0307 548.8631l0 0c0 -3.7311401 3.0247192 -6.7558594 6.7558594 -6.7558594l0 0c1.7918091 0 3.5101929 0.711792 4.7771606 1.9787598c1.2669678 1.2669678 1.9787598 2.9853516 1.9787598 4.7770996l0 0c0 3.7312012 -3.0247192 6.7559204 -6.7559204 6.7559204l0 0c-3.7311401 0 -6.7558594 -3.0247192 -6.7558594 -6.7559204z" fill-rule="evenodd"/><path fill="#000000" d="m760.0307 564.8631l0 0c0 -3.7311401 3.0247192 -6.7558594 6.7558594 -6.7558594l0 0c1.7918091 0 3.5101929 0.711792 4.7771606 1.9787598c1.2669678 1.2669678 1.9787598 2.9853516 1.9787598 4.7770996l0 0c0 3.7312012 -3.0247192 6.7559204 -6.7559204 6.7559204l0 0c-3.7311401 0 -6.7558594 -3.0247192 -6.7558594 -6.7559204z" fill-rule="evenodd"/><path fill="#000000" d="m776.0307 580.8631l0 0c0 -3.7311401 3.0247192 -6.7558594 6.7558594 -6.7558594l0 0c1.7918091 0 3.5101929 0.711792 4.7771606 1.9787598c1.2669678 1.2669678 1.9787598 2.9853516 1.9787598 4.7770996l0 0c0 3.7312012 -3.0247192 6.7559204 -6.7559204 6.7559204l0 0c-3.7311401 0 -6.7558594 -3.0247192 -6.7558594 -6.7559204z" fill-rule="evenodd"/><path fill="#000000" d="m778.45856 517.699l0 0c0 -3.7312012 3.0247192 -6.7559204 6.7558594 -6.7559204l0 0c1.7918091 0 3.5101929 0.7117615 4.7771606 1.9787598c1.2669678 1.2669678 1.9787598 2.9853516 1.9787598 4.7771606l0 0c0 3.7311401 -3.0247192 6.7558594 -6.7559204 6.7558594l0 0c-3.7311401 0 -6.7558594 -3.0247192 -6.7558594 -6.7558594z" fill-rule="evenodd"/><path fill="#000000" d="m794.45856 533.699l0 0c0 -3.7312012 3.0247192 -6.7559204 6.7558594 -6.7559204l0 0c1.7918091 0 3.5101929 0.711792 4.7771606 1.9787598c1.2669678 1.2669678 1.9787598 2.9853516 1.9787598 4.7771606l0 0c0 3.7311401 -3.0247192 6.7558594 -6.7559204 6.7558594l0 0c-3.7311401 0 -6.7558594 -3.0247192 -6.7558594 -6.7558594z" fill-rule="evenodd"/><path fill="#000000" d="m810.62085 550.1488l0 0c0 -3.7311401 3.0247192 -6.7558594 6.7558594 -6.7558594l0 0c1.7918091 0 3.5101929 0.71173096 4.7771606 1.9787598c1.2669678 1.2669678 1.9787598 2.9853516 1.9787598 4.7770996l0 0c0 3.7312012 -3.0247192 6.7559204 -6.7559204 6.7559204l0 0c-3.7311401 0 -6.7558594 -3.0247192 -6.7558594 -6.7559204z" fill-rule="evenodd"/><path fill="#44d9e6" d="m878.2533 222.63486l-4.6535645 -47.475113l43.70862 -19.107422l31.666992 35.66606l-24.13733 41.15027z" fill-rule="evenodd"/><path fill="#000000" d="m878.67633 174.45105l0 0c0 -3.731186 3.0247192 -6.755905 6.7559204 -6.755905l0 0c1.791748 0 3.5101929 0.71177673 4.7771606 1.9787598c1.2669678 1.266983 1.9787598 2.9853668 1.9787598 4.7771454l0 0c0 3.731186 -3.0247192 6.755905 -6.7559204 6.755905l0 0c-3.7312012 0 -6.7559204 -3.0247192 -6.7559204 -6.755905z" fill-rule="evenodd"/><path fill="#000000" d="m894.67633 190.45105l0 0c0 -3.731186 3.0247192 -6.755905 6.7559204 -6.755905l0 0c1.791748 0 3.5101929 0.71177673 4.7771606 1.9787598c1.2669678 1.266983 1.9787598 2.9853668 1.9787598 4.7771454l0 0c0 3.731186 -3.0247192 6.755905 -6.7559204 6.755905l0 0c-3.7312012 0 -6.7559204 -3.0247192 -6.7559204 -6.755905z" fill-rule="evenodd"/><path fill="#000000" d="m910.67633 206.45105l0 0c0 -3.731186 3.0247192 -6.755905 6.7559204 -6.755905l0 0c1.791748 0 3.5101929 0.71177673 4.7771606 1.9787598c1.2669678 1.266983 1.9787598 2.9853668 1.9787598 4.7771454l0 0c0 3.731186 -3.0247192 6.755905 -6.7559204 6.755905l0 0c-3.7312012 0 -6.7559204 -3.0247192 -6.7559204 -6.755905z" fill-rule="evenodd"/><path fill="#000000" d="m926.67633 222.45105l0 0c0 -3.731186 3.0247192 -6.755905 6.7559204 -6.755905l0 0c1.791748 0 3.5101929 0.71177673 4.7771606 1.9787598c1.2669678 1.266983 1.9787598 2.9853668 1.9787598 4.7771454l0 0c0 3.731186 -3.0247192 6.755905 -6.7559204 6.755905l0 0c-3.7312012 0 -6.7559204 -3.0247192 -6.7559204 -6.755905z" fill-rule="evenodd"/><path fill="#000000" d="m870.47424 199.55342l0 0c0 -3.731186 3.0247192 -6.755905 6.7559204 -6.755905l0 0c1.791748 0 3.5101318 0.71177673 4.7771606 1.9787445c1.2669678 1.266983 1.9787598 2.985382 1.9787598 4.7771606l0 0c0 3.7311707 -3.0247803 6.755905 -6.7559204 6.755905l0 0c-3.7312012 0 -6.7559204 -3.0247345 -6.7559204 -6.755905z" fill-rule="evenodd"/><path fill="#000000" d="m886.47424 215.55342l0 0c0 -3.731186 3.0247192 -6.755905 6.7559204 -6.755905l0 0c1.791748 0 3.5101318 0.71177673 4.7771606 1.9787445c1.2669678 1.266983 1.9787598 2.985382 1.9787598 4.7771606l0 0c0 3.7311707 -3.0247803 6.755905 -6.7559204 6.755905l0 0c-3.7312012 0 -6.7559204 -3.0247345 -6.7559204 -6.755905z" fill-rule="evenodd"/><path fill="#000000" d="m902.47424 231.55342l0 0c0 -3.731186 3.0247192 -6.755905 6.7559204 -6.755905l0 0c1.791748 0 3.5101318 0.71177673 4.7771606 1.9787445c1.2669678 1.266983 1.9787598 2.985382 1.9787598 4.7771606l0 0c0 3.7311707 -3.0247803 6.755905 -6.7559204 6.755905l0 0c-3.7312012 0 -6.7559204 -3.0247345 -6.7559204 -6.755905z" fill-rule="evenodd"/><path fill="#000000" d="m904.9021 168.38924l0 0c0 -3.731186 3.0247192 -6.755905 6.7559204 -6.755905l0 0c1.791748 0 3.5101318 0.71177673 4.7771606 1.9787598c1.2669678 1.2669678 1.9787598 2.9853668 1.9787598 4.7771454l0 0c0 3.731186 -3.0247192 6.755905 -6.7559204 6.755905l0 0c-3.7312012 0 -6.7559204 -3.0247192 -6.7559204 -6.755905z" fill-rule="evenodd"/><path fill="#000000" d="m920.9021 184.38924l0 0c0 -3.731186 3.0247192 -6.755905 6.7559204 -6.755905l0 0c1.791748 0 3.5101318 0.71177673 4.7771606 1.9787598c1.2669678 1.2669678 1.9787598 2.9853668 1.9787598 4.7771454l0 0c0 3.731186 -3.0247192 6.755905 -6.7559204 6.755905l0 0c-3.7312012 0 -6.7559204 -3.0247192 -6.7559204 -6.755905z" fill-rule="evenodd"/><path fill="#000000" d="m937.0644 200.83911l0 0c0 -3.731186 3.0247192 -6.755905 6.7559204 -6.755905l0 0c1.791748 0 3.5101929 0.71177673 4.7771606 1.9787598c1.2669678 1.266983 1.9787598 2.9853668 1.9787598 4.7771454l0 0c0 3.731186 -3.0247192 6.755905 -6.7559204 6.755905l0 0c-3.7312012 0 -6.7559204 -3.0247192 -6.7559204 -6.755905z" fill-rule="evenodd"/><path fill="#000000" fill-opacity="0.0" d="m412.01312 148.39108l52.92914 -91.55907l52.92914 91.55907z" fill-rule="evenodd"/><path stroke="#0000ff" stroke-width="4.0" stroke-linejoin="round" stroke-linecap="butt" d="m412.01312 148.39108l52.92914 -91.55907l52.92914 91.55907z" fill-rule="evenodd"/><path fill="#000000" fill-opacity="0.0" d="m431.25723 137.46982l33.685028 -58.267715l33.685028 58.267715z" fill-rule="evenodd"/><path stroke="#0000ff" stroke-width="4.0" stroke-linejoin="round" stroke-linecap="butt" d="m431.25723 137.46982l33.685028 -58.267715l33.685028 58.267715z" fill-rule="evenodd"/><path fill="#000000" fill-opacity="0.0" d="m608.9543 520.93665l74.99213 -74.55118l27.181091 102.20474z" fill-rule="evenodd"/><path stroke="#0000ff" stroke-width="4.0" stroke-linejoin="round" stroke-linecap="butt" d="m608.9543 520.93665l74.99213 -74.55118l27.181091 102.20474z" fill-rule="evenodd"/><path fill="#000000" fill-opacity="0.0" d="m630.3788 515.4314l47.73224 -47.448853l17.307129 65.055115z" fill-rule="evenodd"/><path stroke="#0000ff" stroke-width="4.0" stroke-linejoin="round" stroke-linecap="butt" d="m630.3788 515.4314l47.73224 -47.448853l17.307129 65.055115z" fill-rule="evenodd"/><path fill="#000000" fill-opacity="0.0" d="m869.8399 79.979004l52.92914 -91.55906l52.92914 91.55906z" fill-rule="evenodd"/><path stroke="#0000ff" stroke-width="4.0" stroke-linejoin="round" stroke-linecap="butt" d="m869.8399 79.979004l52.92914 -91.55906l52.92914 91.55906z" fill-rule="evenodd"/><path fill="#000000" fill-opacity="0.0" d="m889.084 69.05774l33.68506 -58.26771l33.684998 58.26771z" fill-rule="evenodd"/><path stroke="#0000ff" stroke-width="4.0" stroke-linejoin="round" stroke-linecap="butt" d="m889.084 69.05774l33.68506 -58.26771l33.684998 58.26771z" fill-rule="evenodd"/><path fill="#000000" fill-opacity="0.0" d="m736.55237 295.25864l9.795288 -77.52756l77.763794 7.7637787z" fill-rule="evenodd"/><path stroke="#ff00ff" stroke-width="4.0" stroke-linejoin="round" stroke-linecap="butt" d="m736.55237 295.25864l9.795288 -77.52756l77.763794 7.7637787z" fill-rule="evenodd"/><path fill="#000000" fill-opacity="0.0" d="m693.46814 66.280785l78.01575 4.299217l-2.236206 78.12598z" fill-rule="evenodd"/><path stroke="#ff00ff" stroke-width="4.0" stroke-linejoin="round" stroke-linecap="butt" d="m693.46814 66.280785l78.01575 4.299217l-2.236206 78.12598z" fill-rule="evenodd"/><path fill="#000000" fill-opacity="0.0" d="m330.73474 418.12463l66.11023 -41.653564l43.370087 64.99213z" fill-rule="evenodd"/><path stroke="#ff00ff" stroke-width="4.0" stroke-linejoin="round" stroke-linecap="butt" d="m330.73474 418.12463l66.11023 -41.653564l43.370087 64.99213z" fill-rule="evenodd"/><path fill="#000000" fill-opacity="0.0" d="m12.694904 451.13947l37.52756 68.53546l-67.543304 39.307068z" fill-rule="evenodd"/><path stroke="#ff00ff" stroke-width="4.0" stroke-linejoin="round" stroke-linecap="butt" d="m12.694904 451.13947l37.52756 68.53546l-67.543304 39.307068z" fill-rule="evenodd"/><path fill="#000000" fill-opacity="0.0" d="m878.66205 353.31503l73.35431 -26.97638l28.881897 72.61417z" fill-rule="evenodd"/><path stroke="#ff00ff" stroke-width="4.0" stroke-linejoin="round" stroke-linecap="butt" d="m878.66205 353.31503l73.35431 -26.97638l28.881897 72.61417z" fill-rule="evenodd"/><path fill="#ffff00" d="m274.34647 508.3491l0 0c0 -2.2004395 1.7838135 -3.984253 3.984253 -3.984253l0 0c1.0566711 0 2.0700989 0.4197693 2.8172913 1.1669617c0.7471924 0.7471924 1.1669617 1.7605896 1.1669617 2.8172913l0 0c0 2.2004395 -1.7838135 3.9842224 -3.984253 3.9842224l0 0c-2.2004395 0 -3.984253 -1.783783 -3.984253 -3.9842224z" fill-rule="evenodd"/><path fill="#000000" fill-opacity="0.0" d="m444.97244 518.80444l67.653534 -61.44879" fill-rule="evenodd"/><path stroke="#ffff00" stroke-width="4.0" stroke-linejoin="round" stroke-linecap="butt" d="m444.97244 518.80444l67.653534 -61.44879" fill-rule="evenodd"/><path fill="#000000" fill-opacity="0.0" d="m404.23358 58.540684l-30.897614 -22.26772" fill-rule="evenodd"/><path stroke="#ffff00" stroke-width="4.0" stroke-linejoin="round" stroke-linecap="butt" d="m404.23358 58.540684l-30.897614 -22.26772" fill-rule="evenodd"/><path fill="#000000" fill-opacity="0.0" d="m833.7113 181.14436l33.228333 -152.50394" fill-rule="evenodd"/><path stroke="#ffff00" stroke-width="4.0" stroke-linejoin="round" stroke-linecap="butt" d="m833.7113 181.14436l33.228333 -152.50394" fill-rule="evenodd"/><path fill="#000000" fill-opacity="0.0" d="m667.8609 337.96063l-15.937012 -71.653534" fill-rule="evenodd"/><path stroke="#ffff00" stroke-width="4.0" stroke-linejoin="round" stroke-linecap="butt" d="m667.8609 337.96063l-15.937012 -71.653534" fill-rule="evenodd"/><path fill="#000000" fill-opacity="0.0" d="m384.4777 293.3832l105.07086 82.77164" fill-rule="evenodd"/><path stroke="#35b729" stroke-width="4.0" stroke-linejoin="round" stroke-linecap="butt" stroke-dasharray="16.0,12.0" d="m384.4777 293.3832l105.07086 82.77164" fill-rule="evenodd"/><path fill="#000000" fill-opacity="0.0" d="m447.3622 28.110237l78.01572 -39.811024" fill-rule="evenodd"/><path stroke="#35b729" stroke-width="4.0" stroke-linejoin="round" stroke-linecap="butt" stroke-dasharray="16.0,12.0" d="m447.3622 28.110237l78.01572 -39.811024" fill-rule="evenodd"/><path fill="#000000" fill-opacity="0.0" d="m429.80533 278.46338l61.039368 -48.7874l50.393707 59.74803z" fill-rule="evenodd"/><path stroke="#ff00ff" stroke-width="4.0" stroke-linejoin="round" stroke-linecap="butt" d="m429.80533 278.46338l61.039368 -48.7874l50.393707 59.74803z" fill-rule="evenodd"/><path fill="#ffff00" d="m298.34647 364.3491l0 0c0 -2.2004395 1.7838135 -3.984253 3.984253 -3.984253l0 0c1.0566711 0 2.0700989 0.4197693 2.8172913 1.1669617c0.7471924 0.7471924 1.1669617 1.7605896 1.1669617 2.8172913l0 0c0 2.2004395 -1.7838135 3.984253 -3.984253 3.984253l0 0c-2.2004395 0 -3.984253 -1.7838135 -3.984253 -3.984253z" fill-rule="evenodd"/><path fill="#ffff00" d="m82.34646 204.34908l0 0c0 -2.2004395 1.7838058 -3.984253 3.984253 -3.984253l0 0c1.0566864 0 2.0700989 0.4197693 2.8172913 1.1669617c0.7471924 0.7471924 1.1669617 1.7606049 1.1669617 2.8172913l0 0c0 2.2004547 -1.7838135 3.984253 -3.984253 3.984253l0 0c-2.200447 0 -3.984253 -1.7837982 -3.984253 -3.984253z" fill-rule="evenodd"/><path fill="#ffff00" d="m530.34644 516.34906l0 0c0 -2.2004395 1.7838135 -3.984253 3.984253 -3.984253l0 0c1.0567017 0 2.0701294 0.4197998 2.8173218 1.1669922c0.7471924 0.7471924 1.1669312 1.7606201 1.1669312 2.8172607l0 0c0 2.2004395 -1.7838135 3.984253 -3.984253 3.984253l0 0c-2.2004395 0 -3.984253 -1.7838135 -3.984253 -3.984253z" fill-rule="evenodd"/><path fill="#ffff00" d="m346.34647 172.34908l0 0c0 -2.2004395 1.7838135 -3.984253 3.984253 -3.984253l0 0c1.0566711 0 2.0700989 0.4197693 2.8172913 1.1669617c0.7471924 0.7471924 1.1669617 1.7606049 1.1669617 2.8172913l0 0c0 2.2004547 -1.7838135 3.984253 -3.984253 3.984253l0 0c-2.2004395 0 -3.984253 -1.7837982 -3.984253 -3.984253z" fill-rule="evenodd"/><path fill="#ffff00" d="m162.34645 268.3491l0 0c0 -2.2004395 1.7838135 -3.984253 3.984253 -3.984253l0 0c1.0567017 0 2.0700989 0.4197693 2.8172913 1.1669617c0.7471924 0.7471924 1.1669617 1.7605896 1.1669617 2.8172913l0 0c0 2.2004395 -1.7838135 3.984253 -3.984253 3.984253l0 0c-2.2004395 0 -3.984253 -1.7838135 -3.984253 -3.984253z" fill-rule="evenodd"/><path fill="#ffff00" d="m810.34644 436.3491l0 0c0 -2.2004395 1.7838135 -3.984253 3.984253 -3.984253l0 0c1.0567017 0 2.0701294 0.4197693 2.8173218 1.1669617c0.7471924 0.7471924 1.1669312 1.7605896 1.1669312 2.8172913l0 0c0 2.2004395 -1.7838135 3.984253 -3.984253 3.984253l0 0c-2.2004395 0 -3.984253 -1.7838135 -3.984253 -3.984253z" fill-rule="evenodd"/><path fill="#ffff00" d="m154.34645 4.3490815l0 0c0 -2.2004418 1.7838135 -3.9842522 3.984253 -3.9842522l0 0c1.0567017 0 2.0700989 0.41976818 2.8172913 1.1669604c0.7471924 0.74719214 1.1669617 1.7606022 1.1669617 2.8172917l0 0c0 2.2004414 -1.7838135 3.9842515 -3.984253 3.9842515l0 0c-2.2004395 0 -3.984253 -1.7838101 -3.984253 -3.9842515z" fill-rule="evenodd"/><path fill="#ffff00" d="m530.34644 116.34908l0 0c0 -2.2004395 1.7838135 -3.984253 3.984253 -3.984253l0 0c1.0567017 0 2.0701294 0.4197693 2.8173218 1.1669617c0.7471924 0.7471924 1.1669312 1.7605972 1.1669312 2.8172913l0 0c0 2.2004395 -1.7838135 3.984253 -3.984253 3.984253l0 0c-2.2004395 0 -3.984253 -1.7838135 -3.984253 -3.984253z" fill-rule="evenodd"/><path fill="#ffff00" d="m738.34644 12.349081l0 0c0 -2.2004414 1.7838135 -3.984252 3.984253 -3.984252l0 0c1.0567017 0 2.0701294 0.41976833 2.8173218 1.1669607c0.7471924 0.7471924 1.1669312 1.760602 1.1669312 2.8172913l0 0c0 2.2004423 -1.7838135 3.984253 -3.984253 3.984253l0 0c-2.2004395 0 -3.984253 -1.7838106 -3.984253 -3.984253z" fill-rule="evenodd"/><path fill="#ffff00" d="m866.34644 268.3491l0 0c0 -2.2004395 1.7838135 -3.984253 3.984253 -3.984253l0 0c1.0567017 0 2.0701294 0.4197693 2.8173218 1.1669617c0.7471924 0.7471924 1.1669312 1.7605896 1.1669312 2.8172913l0 0c0 2.2004395 -1.7838135 3.984253 -3.984253 3.984253l0 0c-2.2004395 0 -3.984253 -1.7838135 -3.984253 -3.984253z" fill-rule="evenodd"/><path fill="#ffff00" d="m594.34644 252.34908l0 0c0 -2.2004395 1.7838135 -3.984253 3.984253 -3.984253l0 0c1.0567017 0 2.0701294 0.4197693 2.8173218 1.1669617c0.7471924 0.7471924 1.1669312 1.7606049 1.1669312 2.8172913l0 0c0 2.2004547 -1.7838135 3.9842682 -3.984253 3.9842682l0 0c-2.2004395 0 -3.984253 -1.7838135 -3.984253 -3.9842682z" fill-rule="evenodd"/><path fill="#000000" fill-opacity="0.0" d="m132.28084 205.43045l52.157486 2.6771545" fill-rule="evenodd"/><path stroke="#ffff00" stroke-width="4.0" stroke-linejoin="round" stroke-linecap="butt" d="m132.28084 205.43045l52.157486 2.6771545" fill-rule="evenodd"/><path fill="#000000" fill-opacity="0.0" d="m223.23752 301.31296l-20.031494 75.52756l-76.031494 -18.078735z" fill-rule="evenodd"/><path stroke="#ff00ff" stroke-width="4.0" stroke-linejoin="round" stroke-linecap="butt" d="m223.23752 301.31296l-20.031494 75.52756l-76.031494 -18.078735z" fill-rule="evenodd"/><path fill="#ffff00" d="m90.34646 452.3491l0 0c0 -2.2004395 1.7838058 -3.984253 3.984253 -3.984253l0 0c1.0566864 0 2.0700989 0.4197693 2.8172913 1.1669617c0.7471924 0.7471924 1.1669617 1.7605896 1.1669617 2.8172913l0 0c0 2.2004395 -1.7838135 3.984253 -3.984253 3.984253l0 0c-2.200447 0 -3.984253 -1.7838135 -3.984253 -3.984253z" fill-rule="evenodd"/><path fill="#ffff00" d="m706.34644 172.34908l0 0c0 -2.2004395 1.7838135 -3.984253 3.984253 -3.984253l0 0c1.0567017 0 2.0701294 0.4197693 2.8173218 1.1669617c0.7471924 0.7471924 1.1669312 1.7606049 1.1669312 2.8172913l0 0c0 2.2004547 -1.7838135 3.984253 -3.984253 3.984253l0 0c-2.2004395 0 -3.984253 -1.7837982 -3.984253 -3.984253z" fill-rule="evenodd"/><path fill="#000000" d="m298.55487 221.99702l0 0c0 -3.731186 3.0247192 -6.755905 6.75589 -6.755905l0 0c1.7917786 0 3.5101624 0.71177673 4.7771606 1.9787598c1.2669678 1.2669678 1.9787598 2.9853668 1.9787598 4.7771454l0 0c0 3.731186 -3.0247192 6.755905 -6.7559204 6.755905l0 0c-3.7311707 0 -6.75589 -3.0247192 -6.75589 -6.755905z" fill-rule="evenodd"/><path fill="#44d9e6" d="m601.684 68.02817l-44.44934 -17.286293l2.685669 -47.626953l46.109253 -12.148779l25.811401 40.11859z" fill-rule="evenodd"/><path fill="#000000" d="m561.5005 11.616406l0 0c0 -3.7311835 3.0247192 -6.7559056 6.7559204 -6.7559056l0 0c1.791748 0 3.5101318 0.711781 4.7771606 1.9787588c1.2669678 1.2669778 1.9787598 2.9853692 1.9787598 4.777147l0 0c0 3.731183 -3.0247192 6.755906 -6.7559204 6.755906l0 0c-3.7312012 0 -6.7559204 -3.024723 -6.7559204 -6.755906z" fill-rule="evenodd"/><path fill="#000000" d="m577.5005 27.616405l0 0c0 -3.731182 3.0247192 -6.755905 6.7559204 -6.755905l0 0c1.791748 0 3.5101318 0.71178055 4.7771606 1.9787598c1.2669678 1.2669773 1.9787598 2.9853687 1.9787598 4.7771454l0 0c0 3.731184 -3.0247192 6.755905 -6.7559204 6.755905l0 0c-3.7312012 0 -6.7559204 -3.0247211 -6.7559204 -6.755905z" fill-rule="evenodd"/><path fill="#000000" d="m593.5005 43.616405l0 0c0 -3.731182 3.0247192 -6.755905 6.7559204 -6.755905l0 0c1.791748 0 3.5101318 0.71178055 4.7771606 1.9787598c1.2669678 1.2669792 1.9787598 2.9853668 1.9787598 4.7771454l0 0c0 3.731186 -3.0247192 6.755905 -6.7559204 6.755905l0 0c-3.7312012 0 -6.7559204 -3.0247192 -6.7559204 -6.755905z" fill-rule="evenodd"/><path fill="#000000" d="m609.5005 59.616405l0 0c0 -3.731182 3.0247192 -6.755905 6.7559204 -6.755905l0 0c1.791748 0 3.5101318 0.71178055 4.7771606 1.9787598c1.2669678 1.2669792 1.9787598 2.9853668 1.9787598 4.7771454l0 0c0 3.731186 -3.0247192 6.755909 -6.7559204 6.755909l0 0c-3.7312012 0 -6.7559204 -3.024723 -6.7559204 -6.755909z" fill-rule="evenodd"/><path fill="#000000" d="m553.2984 36.71877l0 0c0 -3.731186 3.0247192 -6.755905 6.7559204 -6.755905l0 0c1.791748 0 3.5101318 0.71178055 4.7770996 1.9787579c1.2670288 1.2669773 1.9787598 2.9853687 1.9787598 4.7771473l0 0c0 3.731182 -3.0247192 6.755905 -6.7558594 6.755905l0 0c-3.7312012 0 -6.7559204 -3.024723 -6.7559204 -6.755905z" fill-rule="evenodd"/><path fill="#000000" d="m569.2984 52.71877l0 0c0 -3.731186 3.0247192 -6.755905 6.7559204 -6.755905l0 0c1.791748 0 3.5101318 0.71178055 4.7770996 1.9787598c1.2670288 1.2669754 1.9787598 2.9853668 1.9787598 4.7771454l0 0c0 3.731182 -3.0247192 6.755905 -6.7558594 6.755905l0 0c-3.7312012 0 -6.7559204 -3.024723 -6.7559204 -6.755905z" fill-rule="evenodd"/><path fill="#000000" d="m585.2984 68.718765l0 0c0 -3.7311783 3.0247192 -6.7559013 6.7559204 -6.7559013l0 0c1.791748 0 3.5101318 0.71178055 4.7770996 1.9787598c1.2670288 1.2669792 1.9787598 2.9853706 1.9787598 4.7771416l0 0c0 3.731186 -3.0247192 6.755905 -6.7558594 6.755905l0 0c-3.7312012 0 -6.7559204 -3.0247192 -6.7559204 -6.755905z" fill-rule="evenodd"/><path fill="#000000" d="m587.72626 5.554589l0 0c0 -3.7311835 3.0247192 -6.755905 6.7559204 -6.755905l0 0c1.791748 0 3.5101318 0.7117808 4.7770996 1.9787588c1.2670288 1.266978 1.9787598 2.985369 1.9787598 4.7771463l0 0c0 3.7311835 -3.0247192 6.7559056 -6.7558594 6.7559056l0 0c-3.7312012 0 -6.7559204 -3.024722 -6.7559204 -6.7559056z" fill-rule="evenodd"/><path fill="#000000" d="m603.72626 21.554588l0 0c0 -3.731182 3.0247192 -6.755905 6.7559204 -6.755905l0 0c1.791748 0 3.5101318 0.7117815 4.7770996 1.9787598c1.2670288 1.2669773 1.9787598 2.9853687 1.9787598 4.7771454l0 0c0 3.731184 -3.0247192 6.755907 -6.7558594 6.755907l0 0c-3.7312012 0 -6.7559204 -3.024723 -6.7559204 -6.755907z" fill-rule="evenodd"/><path fill="#000000" d="m619.88855 38.004467l0 0c0 -3.731186 3.0247192 -6.755907 6.7559204 -6.755907l0 0c1.791748 0 3.5101318 0.71178246 4.7771606 1.9787579c1.2669678 1.2669792 1.9787598 2.9853706 1.9787598 4.777149l0 0c0 3.731182 -3.0247803 6.755905 -6.7559204 6.755905l0 0c-3.7312012 0 -6.7559204 -3.024723 -6.7559204 -6.755905z" fill-rule="evenodd"/><path fill="#000000" d="m608.5024 -0.85337114l0 0c0 -3.7311835 3.0247192 -6.7559056 6.7559204 -6.7559056l0 0c1.791748 0 3.5101318 0.711781 4.7770996 1.9787588c1.2670288 1.2669783 1.9787598 2.9853692 1.9787598 4.777147l0 0c0 3.7311835 -3.0247192 6.7559056 -6.7558594 6.7559056l0 0c-3.7312012 0 -6.7559204 -3.024722 -6.7559204 -6.7559056z" fill-rule="evenodd"/><path fill="#ff5ca7" d="m168.31534 180.96321l672.18896 0l0 199.37007l-672.18896 0z" fill-rule="evenodd"/><path stroke="#666666" stroke-width="1.0" stroke-linejoin="round" stroke-linecap="butt" d="m168.31534 180.96321l672.18896 0l0 199.37007l-672.18896 0z" fill-rule="evenodd"/><path fill="#35b729" d="m143.90552 156.63931l672.18896 0l0 199.37009l-672.18896 0z" fill-rule="evenodd"/><path fill="#ffffff" d="m156.3784 166.55995l647.2441 0l0 179.74803l-647.2441 0z" fill-rule="evenodd"/><path fill="#000000" fill-opacity="0.0" d="m156.3622 165.4462l647.24414 0l0 179.74802l-647.24414 0z" fill-rule="evenodd"/><path fill="#000000" d="m307.28442 240.78798q-4.671875 0 -7.78125 -2.0q-3.09375 -2.0 -4.703125 -5.53125q-1.59375 -3.53125 -1.859375 -8.1875l6.671875 -1.8125q0.203125 2.875 0.890625 5.546875q0.703125 2.65625 2.296875 4.359375q1.609375 1.703125 4.484375 1.703125q2.921875 0 4.421875 -1.625q1.5 -1.640625 1.5 -4.71875q0 -3.65625 -1.671875 -5.890625q-1.65625 -2.234375 -4.1875 -4.5l-9.0625 -8.0q-2.671875 -2.328125 -3.9375 -5.09375q-1.265625 -2.765625 -1.265625 -6.84375q0 -5.921875 3.390625 -9.1875q3.40625 -3.265625 9.265625 -3.265625q3.203125 0 5.640625 0.828125q2.4375 0.828125 4.0625 2.5625q1.640625 1.734375 2.59375 4.375q0.96875 2.625 1.3125 6.15625l-6.40625 1.734375q-0.203125 -2.65625 -0.796875 -4.890625q-0.59375 -2.234375 -2.09375 -3.59375q-1.5 -1.375 -4.3125 -1.375q-2.796875 0 -4.359375 1.5q-1.5625 1.5 -1.5625 4.421875q0 2.46875 0.828125 4.078125q0.828125 1.59375 2.703125 3.265625l9.125 8.0q3.078125 2.65625 5.40625 6.359375q2.328125 3.703125 2.328125 8.765625q0 4.0 -1.671875 6.90625q-1.65625 2.890625 -4.5625 4.421875q-2.890625 1.53125 -6.6875 1.53125zm18.653442 -0.59375l0 -38.53125l7.140625 0l0 38.53125l-7.140625 0zm0 -44.265625l0 -7.453125l7.140625 0l0 7.453125l-7.140625 0zm14.795563 44.265625l0 -38.53125l6.609375 0l0 3.671875q1.921875 -2.203125 4.25 -3.265625q2.34375 -1.0625 4.8125 -1.0625q2.125 0 3.828125 1.0625q1.703125 1.0625 2.4375 3.796875q2.0625 -2.53125 4.5 -3.6875q2.4375 -1.171875 5.09375 -1.171875q1.875 0 3.40625 0.90625q1.53125 0.890625 2.453125 2.859375q0.9375 1.953125 0.9375 5.15625l0 30.265625l-6.53125 0l0 -29.796875q0 -2.796875 -0.90625 -3.765625q-0.890625 -0.96875 -2.421875 -0.96875q-1.46875 0 -3.078125 0.84375q-1.59375 0.828125 -2.921875 2.296875q0 0.265625 0 0.53125q0 0.265625 0 0.59375l0 30.265625l-6.53125 0l0 -29.796875q0 -2.796875 -0.90625 -3.765625q-0.890625 -0.96875 -2.421875 -0.96875q-1.46875 0 -3.046875 0.84375q-1.5625 0.828125 -2.953125 2.296875l0 31.390625l-6.609375 0zm45.326324 12.671875l0 -51.203125l7.140625 0l0 3.0625q1.265625 -1.453125 3.0625 -2.515625q1.796875 -1.078125 4.265625 -1.078125q3.0 0 4.765625 1.578125q1.765625 1.5625 2.625 3.9375q0.875 2.359375 1.140625 4.796875q0.265625 2.421875 0.265625 4.15625l0 9.328125q0 4.0625 -0.796875 7.703125q-0.796875 3.625 -2.90625 5.859375q-2.09375 2.234375 -5.890625 2.234375q-2.0625 0 -3.671875 -1.03125q-1.59375 -1.03125 -2.859375 -2.359375l0 15.53125l-7.140625 0zm12.265625 -17.734375q1.875 0 2.671875 -1.359375q0.796875 -1.375 1.0 -3.703125q0.203125 -2.34375 0.203125 -5.140625l0 -9.328125q0 -2.40625 -0.265625 -4.4375q-0.265625 -2.03125 -1.140625 -3.234375q-0.859375 -1.203125 -2.734375 -1.203125q-1.390625 0 -2.65625 0.609375q-1.265625 0.59375 -2.203125 1.390625l0 24.671875q1.0 0.734375 2.265625 1.234375q1.265625 0.5 2.859375 0.5zm18.13498 5.0625l0 -53.984375l7.125 0l0 53.984375l-7.125 0zm25.264282 0.53125q-4.53125 0 -7.0 -1.765625q-2.46875 -1.765625 -3.4375 -5.1875q-0.96875 -3.4375 -0.96875 -8.4375l0 -8.796875q0 -5.140625 1.0 -8.53125q1.0 -3.40625 3.5 -5.140625q2.5 -1.734375 6.90625 -1.734375q4.859375 0 7.15625 2.0q2.3125 2.0 3.046875 5.765625q0.734375 3.765625 0.734375 9.03125l0 3.140625l-15.203125 0l0 7.734375q0 2.328125 0.421875 3.796875q0.4375 1.46875 1.40625 2.171875q0.96875 0.6875 2.5 0.6875q1.609375 0 2.4375 -0.765625q0.828125 -0.765625 1.125 -2.1875q0.3125 -1.4375 0.3125 -3.375l0 -2.328125l6.921875 0l0 1.453125q0 5.8125 -2.46875 9.140625q-2.453125 3.328125 -8.390625 3.328125zm-4.265625 -23.53125l8.203125 0l0 -3.46875q0 -2.390625 -0.28125 -4.015625q-0.265625 -1.640625 -1.09375 -2.46875q-0.828125 -0.84375 -2.625 -0.84375q-1.734375 0 -2.640625 0.8125q-0.890625 0.796875 -1.234375 2.703125q-0.328125 1.890625 -0.328125 5.21875l0 2.0625zm47.45163 23.53125q-4.71875 0 -7.15625 -1.890625q-2.4375 -1.90625 -3.28125 -5.375q-0.828125 -3.46875 -0.828125 -8.0625l0 -8.859375q0 -4.875 0.859375 -8.296875q0.875 -3.4375 3.3125 -5.265625q2.4375 -1.84375 7.09375 -1.84375q4.203125 0 6.5 1.375q2.3125 1.359375 3.171875 4.0625q0.859375 2.703125 0.859375 6.703125l0 2.265625l-6.453125 0l0 -2.34375q0 -2.53125 -0.34375 -4.0q-0.328125 -1.46875 -1.203125 -2.125q-0.859375 -0.671875 -2.453125 -0.671875q-1.734375 0 -2.671875 0.8125q-0.9375 0.796875 -1.234375 2.703125q-0.296875 1.890625 -0.296875 5.15625l0 12.125q0 4.9375 0.921875 6.609375q0.9375 1.65625 3.34375 1.65625q1.796875 0 2.625 -0.828125q0.84375 -0.84375 1.078125 -2.375q0.234375 -1.53125 0.234375 -3.453125l0 -3.140625l6.453125 0l0 2.671875q0 3.859375 -0.90625 6.65625q-0.890625 2.796875 -3.1875 4.265625q-2.296875 1.46875 -6.4375 1.46875zm23.802032 0q-2.265625 0 -4.0 -1.296875q-1.734375 -1.296875 -2.734375 -3.328125q-1.0 -2.03125 -1.0 -4.3125q0 -3.59375 1.203125 -6.0625q1.203125 -2.46875 3.296875 -4.15625q2.109375 -1.703125 4.875 -2.96875q2.7655945 -1.265625 5.8280945 -2.46875l0 -2.734375q0 -2.328125 -0.265625 -3.859375q-0.265625 -1.53125 -1.109375 -2.296875q-0.828125 -0.78125 -2.5 -0.78125q-1.4530945 0 -2.3593445 0.671875q-0.90625 0.671875 -1.3125 1.90625q-0.390625 1.234375 -0.390625 2.890625l0 1.9375l-7.0625 -0.265625q0.140625 -6.40625 2.9375 -9.4375q2.796875 -3.03125 8.6562195 -3.03125q5.734375 0 8.125 3.140625q2.40625 3.125 2.40625 9.0625l0 17.59375q0 1.796875 0.09375 3.46875q0.109375 1.671875 0.265625 3.109375q0.171875 1.421875 0.3125 2.6875l-6.53125 0q-0.203125 -1.0625 -0.5 -2.6875q-0.296875 -1.640625 -0.4375 -2.984375q-0.671875 2.265625 -2.578125 4.234375q-1.890625 1.96875 -5.2187195 1.96875zm2.796875 -6.125q1.0624695 0 1.9999695 -0.59375q0.9375 -0.609375 1.671875 -1.375q0.734375 -0.765625 1.0 -1.234375l0 -10.9375q-1.671875 0.9375 -3.140625 1.875q-1.4687195 0.921875 -2.5624695 1.96875q-1.09375 1.03125 -1.734375 2.328125q-0.625 1.296875 -0.625 2.96875q0 2.328125 0.859375 3.671875q0.875 1.328125 2.53125 1.328125zm29.192413 6.125q-4.71875 0 -7.15625 -1.890625q-2.4375 -1.90625 -3.28125 -5.375q-0.828125 -3.46875 -0.828125 -8.0625l0 -8.859375q0 -4.875 0.859375 -8.296875q0.875 -3.4375 3.3125 -5.265625q2.4375 -1.84375 7.09375 -1.84375q4.203125 0 6.5 1.375q2.3125 1.359375 3.171875 4.0625q0.859375 2.703125 0.859375 6.703125l0 2.265625l-6.453125 0l0 -2.34375q0 -2.53125 -0.34375 -4.0q-0.328125 -1.46875 -1.203125 -2.125q-0.859375 -0.671875 -2.453125 -0.671875q-1.734375 0 -2.671875 0.8125q-0.9375 0.796875 -1.234375 2.703125q-0.296875 1.890625 -0.296875 5.15625l0 12.125q0 4.9375 0.921875 6.609375q0.9375 1.65625 3.34375 1.65625q1.796875 0 2.625 -0.828125q0.84375 -0.84375 1.078125 -2.375q0.234375 -1.53125 0.234375 -3.453125l0 -3.140625l6.453125 0l0 2.671875q0 3.859375 -0.90625 6.65625q-0.890625 2.796875 -3.1875 4.265625q-2.296875 1.46875 -6.4375 1.46875zm17.067688 -0.53125l0 -53.984375l7.140625 0l0 19.453125q1.921875 -1.859375 4.3125 -3.1875q2.40625 -1.34375 5.34375 -1.34375q2.265625 0 3.5 1.203125q1.234375 1.203125 1.734375 3.0q0.5 1.796875 0.5 3.671875l0 31.1875l-7.125 0l0 -29.125q0 -2.0625 -0.609375 -3.203125q-0.59375 -1.140625 -2.46875 -1.140625q-1.265625 0 -2.640625 0.734375q-1.359375 0.734375 -2.546875 1.8125l0 30.921875l-7.140625 0zm29.927673 0l0 -38.53125l7.140625 0l0 38.53125l-7.140625 0zm0 -44.265625l0 -7.453125l7.140625 0l0 7.453125l-7.140625 0zm14.795593 44.265625l0 -38.53125l7.140625 0l0 3.796875q1.9375 -1.796875 4.265625 -3.0625q2.328125 -1.265625 5.125 -1.265625q2.34375 0 3.5625 1.203125q1.234375 1.203125 1.734375 3.0q0.5 1.796875 0.5 3.671875l0 31.1875l-7.125 0l0 -29.125q0 -2.0625 -0.609375 -3.203125q-0.59375 -1.140625 -2.453125 -1.140625q-1.203125 0 -2.5 0.703125q-1.296875 0.703125 -2.5 1.703125l0 31.0625l-7.140625 0zm39.262146 11.9375q-3.46875 0 -6.265625 -0.734375q-2.796875 -0.734375 -4.40625 -2.34375q-1.59375 -1.59375 -1.59375 -4.1875q0 -1.875 0.796875 -3.28125q0.8125 -1.390625 2.078125 -2.421875q1.265625 -1.03125 2.65625 -1.703125q-1.859375 -0.53125 -2.796875 -1.6875q-0.921875 -1.171875 -0.921875 -2.4375q0 -2.140625 1.125 -3.671875q1.140625 -1.53125 3.140625 -3.328125q-2.203125 -1.671875 -3.34375 -4.265625q-1.125 -2.609375 -1.125 -7.203125q0 -4.53125 1.234375 -7.5625q1.234375 -3.03125 3.65625 -4.59375q2.4375 -1.578125 5.96875 -1.578125q3.140625 0 5.03125 1.078125q1.90625 1.0625 2.90625 3.1875q0.328125 -0.53125 1.796875 -1.828125q1.46875 -1.296875 3.390625 -2.171875l1.078125 -0.46875l1.796875 4.609375q-0.875 0.125 -2.3125 0.625q-1.421875 0.5 -2.65625 1.0q-1.234375 0.5 -1.5625 0.84375q0.46875 1.125 0.828125 3.265625q0.375 2.125 0.375 3.796875q0 3.921875 -1.0 6.921875q-1.0 3.0 -3.3125 4.703125q-2.296875 1.703125 -6.359375 1.703125q-0.859375 0 -1.859375 -0.125q-1.0 -0.140625 -1.8125 -0.34375q-0.390625 0.59375 -0.828125 1.40625q-0.4375 0.796875 -0.4375 1.53125q0 0.734375 0.765625 1.171875q0.765625 0.421875 2.4375 0.5625l6.0 0.53125q4.53125 0.390625 6.734375 2.734375q2.203125 2.328125 2.203125 6.65625q0 3.140625 -1.46875 5.296875q-1.46875 2.171875 -4.4375 3.234375q-2.96875 1.078125 -7.5 1.078125zm0.53125 -5.609375q3.8125 0 5.609375 -0.90625q1.796875 -0.890625 1.796875 -2.890625q0 -1.203125 -0.4375 -2.0q-0.4375 -0.796875 -1.578125 -1.265625q-1.125 -0.46875 -3.25 -0.671875l-6.0625 -0.53125q-0.734375 0.734375 -1.40625 1.46875q-0.671875 0.734375 -1.078125 1.5625q-0.390625 0.84375 -0.390625 1.765625q0 1.734375 1.46875 2.59375q1.46875 0.875 5.328125 0.875zm-0.328125 -23.125q1.53125 0 2.421875 -0.5625q0.90625 -0.578125 1.375 -1.671875q0.46875 -1.09375 0.625 -2.6875q0.171875 -1.609375 0.171875 -3.609375q0 -2.0 -0.171875 -3.625q-0.15625 -1.640625 -0.59375 -2.796875q-0.421875 -1.171875 -1.328125 -1.765625q-0.90625 -0.609375 -2.4375 -0.609375q-1.46875 0 -2.4375 0.609375q-0.953125 0.59375 -1.421875 1.6875q-0.46875 1.09375 -0.671875 2.734375q-0.203125 1.625 -0.203125 3.765625q0 1.796875 0.171875 3.375q0.171875 1.5625 0.671875 2.703125q0.5 1.125 1.421875 1.796875q0.9375 0.65625 2.40625 0.65625zm18.995483 25.53125l-1.125 -3.0625q1.796875 -0.609375 2.828125 -2.109375q1.03125 -1.5 1.03125 -3.5625l-3.796875 0l0 -7.671875l7.328125 0l0 7.53125q0 3.546875 -1.53125 5.640625q-1.53125 2.09375 -4.734375 3.234375z" fill-rule="nonzero"/><path fill="#000000" d="m317.17044 320.1942l0 -38.53125l6.609375 0l0 3.671875q1.921875 -2.203125 4.25 -3.265625q2.34375 -1.0625 4.8125 -1.0625q2.125 0 3.828125 1.0625q1.703125 1.0625 2.4375 3.796875q2.0625 -2.53125 4.5 -3.6875q2.4375 -1.171875 5.09375 -1.171875q1.875 0 3.40625 0.90625q1.53125 0.890625 2.453125 2.859375q0.9375 1.953125 0.9375 5.15625l0 30.265625l-6.53125 0l0 -29.796875q0 -2.796875 -0.90625 -3.765625q-0.890625 -0.96875 -2.421875 -0.96875q-1.46875 0 -3.078125 0.84375q-1.59375 0.828125 -2.921875 2.296875q0 0.265625 0 0.53125q0 0.265625 0 0.59375l0 30.265625l-6.53125 0l0 -29.796875q0 -2.796875 -0.90625 -3.765625q-0.890625 -0.96875 -2.421875 -0.96875q-1.46875 0 -3.046875 0.84375q-1.5625 0.828125 -2.953125 2.296875l0 31.390625l-6.609375 0zm52.263824 0.53125q-2.265625 0 -4.0 -1.296875q-1.734375 -1.296875 -2.734375 -3.328125q-1.0 -2.03125 -1.0 -4.3125q0 -3.59375 1.203125 -6.0625q1.203125 -2.46875 3.296875 -4.15625q2.109375 -1.703125 4.875 -2.96875q2.765625 -1.265625 5.828125 -2.46875l0 -2.734375q0 -2.328125 -0.265625 -3.859375q-0.265625 -1.53125 -1.109375 -2.296875q-0.828125 -0.78125 -2.5 -0.78125q-1.453125 0 -2.359375 0.671875q-0.90625 0.671875 -1.3125 1.90625q-0.390625 1.234375 -0.390625 2.890625l0 1.9375l-7.0625 -0.265625q0.140625 -6.40625 2.9375 -9.4375q2.796875 -3.03125 8.65625 -3.03125q5.734375 0 8.125 3.140625q2.40625 3.125 2.40625 9.0625l0 17.59375q0 1.796875 0.09375 3.46875q0.109375 1.671875 0.265625 3.109375q0.171875 1.421875 0.3125 2.6875l-6.53125 0q-0.203125 -1.0625 -0.5 -2.6875q-0.296875 -1.640625 -0.4375 -2.984375q-0.671875 2.265625 -2.578125 4.234375q-1.890625 1.96875 -5.21875 1.96875zm2.796875 -6.125q1.0625 0 2.0 -0.59375q0.9375 -0.609375 1.671875 -1.375q0.734375 -0.765625 1.0 -1.234375l0 -10.9375q-1.671875 0.9375 -3.140625 1.875q-1.46875 0.921875 -2.5625 1.96875q-1.09375 1.03125 -1.734375 2.328125q-0.625 1.296875 -0.625 2.96875q0 2.328125 0.859375 3.671875q0.875 1.328125 2.53125 1.328125zm27.598724 6.125q-4.859375 0 -7.265625 -3.5625q-2.40625 -3.5625 -2.40625 -12.09375l0 -7.46875q0 -4.40625 0.734375 -8.171875q0.734375 -3.765625 2.765625 -6.03125q2.046875 -2.265625 5.96875 -2.265625q1.9375 0 3.53125 0.875q1.609375 0.859375 2.875 2.125l0 -17.921875l7.125 0l0 53.984375l-7.125 0l0 -2.46875q-1.265625 1.328125 -2.765625 2.171875q-1.5 0.828125 -3.4375 0.828125zm1.796875 -5.59375q1.0 0 2.125 -0.359375q1.140625 -0.375 2.28125 -1.109375l0 -25.265625q-0.9375 -0.671875 -2.078125 -1.171875q-1.125 -0.5 -2.453125 -0.5q-2.46875 0 -3.34375 2.375q-0.859375 2.359375 -0.859375 5.703125l0 10.859375q0 2.671875 0.296875 4.84375q0.296875 2.15625 1.234375 3.390625q0.9375 1.234375 2.796875 1.234375zm29.399597 5.59375q-4.53125 0 -7.0 -1.765625q-2.46875 -1.765625 -3.4375 -5.1875q-0.96875 -3.4375 -0.96875 -8.4375l0 -8.796875q0 -5.140625 1.0 -8.53125q1.0 -3.40625 3.5 -5.140625q2.5 -1.734375 6.90625 -1.734375q4.859375 0 7.15625 2.0q2.3125 2.0 3.046875 5.765625q0.734375 3.765625 0.734375 9.03125l0 3.140625l-15.203125 0l0 7.734375q0 2.328125 0.421875 3.796875q0.4375 1.46875 1.40625 2.171875q0.96875 0.6875 2.5 0.6875q1.609375 0 2.4375 -0.765625q0.828125 -0.765625 1.125 -2.1875q0.3125 -1.4375 0.3125 -3.375l0 -2.328125l6.921875 0l0 1.453125q0 5.8125 -2.46875 9.140625q-2.453125 3.328125 -8.390625 3.328125zm-4.265625 -23.53125l8.203125 0l0 -3.46875q0 -2.390625 -0.28125 -4.015625q-0.265625 -1.640625 -1.09375 -2.46875q-0.828125 -0.84375 -2.625 -0.84375q-1.734375 0 -2.640625 0.8125q-0.890625 0.796875 -1.234375 2.703125q-0.328125 1.890625 -0.328125 5.21875l0 2.0625zm45.85788 23.53125q-4.859375 0 -7.265625 -3.5625q-2.40625 -3.5625 -2.40625 -12.09375l0 -7.46875q0 -4.40625 0.734375 -8.171875q0.734375 -3.765625 2.765625 -6.03125q2.046875 -2.265625 5.96875 -2.265625q1.9375 0 3.53125 0.875q1.609375 0.859375 2.875 2.125l0 -17.921875l7.125 0l0 53.984375l-7.125 0l0 -2.46875q-1.265625 1.328125 -2.765625 2.171875q-1.5 0.828125 -3.4375 0.828125zm1.796875 -5.59375q1.0 0 2.125 -0.359375q1.140625 -0.375 2.28125 -1.109375l0 -25.265625q-0.9375 -0.671875 -2.078125 -1.171875q-1.125 -0.5 -2.453125 -0.5q-2.46875 0 -3.34375 2.375q-0.859375 2.359375 -0.859375 5.703125l0 10.859375q0 2.671875 0.296875 4.84375q0.296875 2.15625 1.234375 3.390625q0.9375 1.234375 2.796875 1.234375zm19.196503 5.0625l0 -38.53125l7.140625 0l0 38.53125l-7.140625 0zm0 -44.265625l0 -7.453125l7.140625 0l0 7.453125l-7.140625 0zm17.061157 44.265625l0 -33.265625l-4.59375 0l0 -5.265625l4.59375 0l0 -2.0q0 -3.59375 0.5625 -6.15625q0.578125 -2.578125 2.3749695 -3.96875q1.796875 -1.40625 5.40625 -1.40625q1.328125 0 2.453125 0.109375q1.140625 0.09375 2.203125 0.359375l0 5.203125q-0.59375 -0.140625 -1.328125 -0.234375q-0.734375 -0.09375 -1.328125 -0.09375q-2.078125 0 -2.640625 1.359375q-0.5625 1.359375 -0.5625 3.625l0 3.203125l8.9375 0l0 -2.0q0 -3.59375 0.5625 -6.15625q0.5625 -2.578125 2.359375 -3.96875q1.796875 -1.40625 5.40625 -1.40625q1.328125 0 2.421875 0.109375q1.109375 0.09375 2.171875 0.359375l0 5.203125q-0.59375 -0.140625 -1.328125 -0.234375q-0.734375 -0.09375 -1.34375 -0.09375q-2.0625 0 -2.625 1.359375q-0.5625 1.359375 -0.5625 3.625l0 3.203125l16.0 0l0 38.53125l-7.078125 0l0 -33.265625l-8.921875 0l0 33.265625l-7.0625 0l0 -33.265625l-8.9375 0l0 33.265625l-7.1405945 0zm32.06247 -44.265625l0 -7.453125l7.140625 0l0 7.453125l-7.140625 0zm25.262207 44.796875q-4.71875 0 -7.15625 -1.890625q-2.4375 -1.90625 -3.28125 -5.375q-0.828125 -3.46875 -0.828125 -8.0625l0 -8.859375q0 -4.875 0.859375 -8.296875q0.875 -3.4375 3.3125 -5.265625q2.4375 -1.84375 7.09375 -1.84375q4.203125 0 6.5 1.375q2.3125 1.359375 3.171875 4.0625q0.859375 2.703125 0.859375 6.703125l0 2.265625l-6.453125 0l0 -2.34375q0 -2.53125 -0.34375 -4.0q-0.328125 -1.46875 -1.203125 -2.125q-0.859375 -0.671875 -2.453125 -0.671875q-1.734375 0 -2.671875 0.8125q-0.9375 0.796875 -1.234375 2.703125q-0.296875 1.890625 -0.296875 5.15625l0 12.125q0 4.9375 0.921875 6.609375q0.9375 1.65625 3.34375 1.65625q1.796875 0 2.625 -0.828125q0.84375 -0.84375 1.078125 -2.375q0.234375 -1.53125 0.234375 -3.453125l0 -3.140625l6.453125 0l0 2.671875q0 3.859375 -0.90625 6.65625q-0.890625 2.796875 -3.1875 4.265625q-2.296875 1.46875 -6.4375 1.46875zm22.395752 0q-2.265625 0 -3.53125 -1.1875q-1.265625 -1.203125 -1.765625 -3.0q-0.5 -1.8125 -0.5 -3.671875l0 -31.203125l7.140625 0l0 29.0625q0 2.0625 0.59375 3.234375q0.609375 1.171875 2.46875 1.171875q1.203125 0 2.5 -0.703125q1.296875 -0.703125 2.5 -1.703125l0 -31.0625l7.125 0l0 38.53125l-7.125 0l0 -3.796875q-1.859375 1.796875 -4.234375 3.0625q-2.359375 1.265625 -5.171875 1.265625zm24.469421 -0.53125l0 -53.984375l7.125 0l0 53.984375l-7.125 0zm24.858032 0.53125q-3.0 0 -4.828125 -1.125q-1.828125 -1.140625 -2.671875 -3.203125q-0.828125 -2.0625 -0.828125 -4.875l0 -25.125l-4.0625 0l0 -4.734375l4.0625 0l0 -11.265625l7.140625 0l0 11.265625l6.1875 0l0 4.734375l-6.1875 0l0 24.671875q0 2.265625 0.71875 3.234375q0.734375 0.953125 2.8125 0.953125q0.53125 0 1.21875 -0.0625q0.703125 -0.0625 1.375 -0.125l0 5.265625q-1.328125 0.1875 -2.46875 0.28125q-1.125 0.109375 -2.46875 0.109375z" fill-rule="nonzero"/></g></svg>