<?xml version="1.0" standalone="no"?>
<!DOCTYPE svg PUBLIC "-//W3C//DTD SVG 20010904//EN" "http://www.w3.org/TR/2001/REC-SVG-20010904/DTD/svg10.dtd">
<svg version="1.0" xmlns="http://www.w3.org/2000/svg"
  width="172.000000pt" height="114.000000pt" viewBox="0 0 172.000000 114.000000"
  preserveAspectRatio="xMidYMid meet">

  <g transform="translate(0.000000,114.000000) scale(0.100000,-0.100000)"
    fill="#000000" stroke="none">
    <path
      d="M1178 1105 c-10 -22 -7 -31 22 -72 18 -25 33 -51 33 -58 0 -6 -14
-33 -32 -58 l-32 -47 -277 -2 -277 -3 -72 -105 c-40 -58 -72 -109 -72 -115 -1
-9 61 -55 73 -55 2 0 23 29 46 65 24 36 44 64 45 63 1 -2 31 -67 65 -146 l63
-142 -19 -35 c-15 -28 -24 -35 -49 -35 -29 0 -30 -2 -30 -45 0 -44 1 -45 32
-45 23 0 33 -6 38 -20 10 -30 70 -71 113 -77 106 -14 191 99 149 198 l-15 36
100 153 101 154 20 -40 c11 -21 21 -40 22 -42 3 -3 85 29 85 33 0 2 -14 35
-30 74 l-31 72 50 80 c33 54 47 87 43 98 -4 9 -27 45 -51 79 -36 51 -49 62
-73 62 -21 0 -32 -7 -40 -25z m-80 -338 c-2 -8 -46 -80 -98 -160 -128 -197
-124 -197 -213 6 -37 84 -67 156 -67 160 0 4 86 7 191 7 155 0 190 -3 187 -13z
m-191 -435 c7 -31 -7 -56 -36 -60 -31 -5 -51 15 -51 50 0 51 74 60 87 10z" />
    <path
      d="M417 1004 c-11 -12 -8 -59 5 -72 8 -8 57 -12 154 -12 155 0 168 5
162 57 l-3 28 -156 3 c-85 1 -158 -1 -162 -4z" />
    <path
      d="M253 620 c-95 -20 -178 -82 -220 -168 -39 -79 -40 -193 -3 -267 52
-107 161 -175 279 -175 82 0 143 24 205 81 73 66 101 130 100 229 -1 124 -59
217 -167 269 -70 33 -132 43 -194 31z m135 -106 c148 -61 179 -261 56 -362
-137 -114 -344 -16 -344 162 0 67 9 93 52 141 60 69 155 93 236 59z" />
    <path
      d="M306 398 c-51 -79 -53 -89 -30 -112 12 -12 37 -16 104 -16 82 0 88 1
93 22 4 12 4 33 1 45 -5 18 -13 23 -40 23 l-35 0 16 30 c8 16 15 33 15 37 0
10 -53 43 -68 43 -6 0 -31 -32 -56 -72z" />
    <path
      d="M1340 616 c-69 -14 -118 -44 -169 -102 -49 -55 -71 -118 -71 -199 0
-126 66 -228 181 -280 55 -24 71 -27 138 -23 127 7 215 68 269 186 32 71 29
182 -8 256 -62 123 -206 191 -340 162z m161 -113 c142 -72 157 -263 29 -358
-107 -79 -254 -43 -314 76 -43 88 -30 176 39 244 69 70 156 83 246 38z" />
    <path
      d="M1328 464 l-27 -14 35 -77 c43 -95 51 -105 83 -101 46 5 48 42 8 131
-38 83 -49 89 -99 61z" />
  </g>
</svg>